<svg xmlns="http://www.w3.org/2000/svg" viewBox="0 0 746 594">
    <path fill="#fff" opacity=".1" d="M313.55 50.97a20.58 20.58 0 0 0-10.26 3.99l-.18.2-.05.06.06-.07.17-.18c-.46.34-.9.7-1.3 1.1-.46.43-.92.88-1.36 1.33a47.35 47.35 0 0 1-6.3 5.37 54.66 54.66 0 0 1-11.19 6.07 48.9 48.9 0 0 1-12.23 3.05c-6.32.75-12.73.04-18.73-2.07a39.8 39.8 0 0 1-6.71-3.13c-.81-.48-1.6-1.01-2.34-1.59-.38-.28-.75-.57-1.12-.88-.8-.65-1.65-1.25-2.53-1.79a15.16 15.16 0 0 0-8.32-1.74 18.32 18.32 0 0 0-8.79 3.1 21.53 21.53 0 0 0-4.71 4.37 23.44 23.44 0 0 0-5.03 12.22c-.3 2.83-.04 5.7.77 8.44a18.04 18.04 0 0 0 3.66 6.68 15.5 15.5 0 0 0 13.31 5.27c1.75-.17 3.46-.62 5.07-1.31a19.03 19.03 0 0 0 5.63-3.7l1.21-1.15a55.78 55.78 0 0 1 6.27-5.05 51.23 51.23 0 0 1 6.92-4.02 46.88 46.88 0 0 1 15.45-4.42 42.48 42.48 0 0 1 29.27 7.47c.57.4 1.17.94 1.78 1.33a16.65 16.65 0 0 0 8 2.65c3.62.2 7.22-.62 10.4-2.35a22.54 22.54 0 0 0 6.13-4.89 24.16 24.16 0 0 0 4.24-6.81 23.4 23.4 0 0 0 1.76-8.04c.11-2.75-.32-5.49-1.29-8.07a18.48 18.48 0 0 0-4.03-6.39 16.79 16.79 0 0 0-13.64-5.05m291.31 174.12c-4.58.05-9.07 1.3-13.01 3.63-.9.53-1.7 1.18-2.52 1.82a56.13 56.13 0 0 1-6.72 4.96c-.69.42-1.38.84-2.09 1.23a64.16 64.16 0 0 1-37.91 7.95 57.62 57.62 0 0 1-23.8-7.74 41.86 41.86 0 0 1-4.37-3.05 21.1 21.1 0 0 0-13.65-4.88 22.9 22.9 0 0 0-11.05 2.72 23.7 23.7 0 0 0-10.15 10.58 22.44 22.44 0 0 0-1.11 16.7 21.55 21.55 0 0 0 11.98 13.04 22.33 22.33 0 0 0 9.34 1.82c4.67-.1 9.42-1.53 13.01-4.33.66-.52 1.52-1.2 1.98-1.54a61.7 61.7 0 0 1 26.06-11.6 63.54 63.54 0 0 1 20.13-.53 62 62 0 0 1 26.99 10.47c.75.52 1.45 1.11 2.21 1.62a25.05 25.05 0 0 0 13.96 3.89 26.03 26.03 0 0 0 17.16-6.93 24.46 24.46 0 0 0 5.4-7.3 22.76 22.76 0 0 0 2.24-8.92c.13-3.15-.43-6.3-1.63-9.2a22.71 22.71 0 0 0-5.13-7.55 24 24 0 0 0-7.77-5.07 24.75 24.75 0 0 0-9.55-1.8m87.29 234.62a22.7 22.7 0 0 0 1.97 10.02 26.6 26.6 0 0 0 4.3 6.54c1.68 1.95 3.23 4 4.64 6.15a64.93 64.93 0 0 1 7.57 16.93 60.15 60.15 0 0 1 2.2 16.02c0 5.64-.84 11.25-2.48 16.64a54.28 54.28 0 0 1-8.12 16.06c-1.6 2.12-3.5 3.94-5.27 5.9a20.04 20.04 0 0 0-4.8 12.33 24.2 24.2 0 0 0 2.72 12.11 28.26 28.26 0 0 0 5.07 6.9c4.27 4.28 9.7 7.2 15.61 8.43 3.8.8 7.73.84 11.55.1a24.83 24.83 0 0 0 9.63-4.1 21.15 21.15 0 0 0 9.05-17.45c0-2.39-.37-4.76-1.1-7.03a25.21 25.21 0 0 0-3.85-7.5 84.55 84.55 0 0 1-7.74-11.22 66.05 66.05 0 0 1-4.42-9.61 61.75 61.75 0 0 1-2.74-10.13 59.06 59.06 0 0 1-.95-10.55 55.43 55.43 0 0 1 8.04-29.02 58.58 58.58 0 0 1 5.93-8.11c.65-.75 1.35-1.38 1.95-2.13a21.65 21.65 0 0 0 4.89-13.79c-.01-3.27-.7-6.5-2.05-9.48a26.24 26.24 0 0 0-5.6-7.99 29.08 29.08 0 0 0-8.27-5.67 29.92 29.92 0 0 0-10.12-2.63c-3.53-.28-7.1.1-10.49 1.14a25.95 25.95 0 0 0-8.7 4.6c-2.48 2-4.53 4.48-6 7.3a21.37 21.37 0 0 0-2.42 9.23m-362.3-30.02c-.53-.96-1.24-1.82-1.86-2.73a58 58 0 0 1-9.46-41.61c1.3-8.3 5.12-18.15 9.36-23.16 5.04-5.94 6.25-14.56 3.48-21.79a20.63 20.63 0 0 0-9.99-11.11 18.17 18.17 0 0 0-14.88-.55c-2.36.97-4.5 2.4-6.3 4.22a21.3 21.3 0 0 0-5.98 17.31c.3 2.81 1.14 5.54 2.47 8.03 1.98 3.35 4.52 6.26 6.29 9.76a56.5 56.5 0 0 1 5.7 18.95c1.43 12.08-.97 24.66-7.26 35.11-1.3 2.1-2.93 3.91-4.31 5.94a21.1 21.1 0 0 0-2.98 11.08 22.4 22.4 0 0 0 4.55 14.05c2.96 4 5.3 8.42 6.91 13.12a58.97 58.97 0 0 1 3.06 27.3 52.04 52.04 0 0 1-7.21 20.63 31.3 31.3 0 0 1-1.77 2.5c-.84 1.1-1.74 2.13-2.54 3.26a20.08 20.08 0 0 0-3.01 9.87 23.4 23.4 0 0 0 5.64 16.07 21.25 21.25 0 0 0 11.29 6.98 17.5 17.5 0 0 0 15.28-3.66c4.29-3.7 6.56-9.3 6.52-14.93a23.12 23.12 0 0 0-3.55-12.28c-.42-.65-.9-1.26-1.31-1.92a60.18 60.18 0 0 1-10.14-33.18c0-8.55 1.95-17.05 5.8-24.7 1.23-2.41 2.68-5.14 4.27-6.94a20.46 20.46 0 0 0 4.93-13.55c0-4.25-.87-8.35-3-12.07ZM327.98 426.94c.43.63.87 1.24 1.32 1.85a23.9 23.9 0 0 0-1.32-1.85Zm0 93.18c.43.64.87 1.27 1.32 1.9a28.6 28.6 0 0 0-1.32-1.9Zm-6.65-283.21a31.66 31.66 0 0 1-9.69-11.29 32.99 32.99 0 0 1-2.68-7.31 36.24 36.24 0 0 1 1.01-19.76A35.9 35.9 0 0 1 323 180.98a22.65 22.65 0 0 0 9.66-18.5c.03-7.8-4.46-15.48-11.98-18.23-5.67-2.08-12.06-.94-16.94 2.48a22.57 22.57 0 0 0-6.79 7.7 36.89 36.89 0 0 1-4.8 6.89c-5.38 6.12-13 10.33-21.19 10.88a26.1 26.1 0 0 1-17.22-4.86 27.6 27.6 0 0 1-5.46-5.18 39.6 39.6 0 0 1-2.65-4.06 17.84 17.84 0 0 0-2.82-3.71 15.93 15.93 0 0 0-12.52-4.69c-2.43.2-4.79.9-6.92 2.09a19.77 19.77 0 0 0-5.62 4.66 22.47 22.47 0 0 0-4.55 19.35c.38 1.56.95 3.08 1.7 4.5.72 1.36 1.6 2.63 2.64 3.77 1 1.11 2.16 2.08 3.43 2.88a27.02 27.02 0 0 1 5.74 4.66 29.59 29.59 0 0 1 4.46 6.21 32.14 32.14 0 0 1 2.88 7.48c2 8.27 1 16.97-2.8 24.58a33.97 33.97 0 0 1-4.38 6.61 31.26 31.26 0 0 1-5.65 5.22 19.36 19.36 0 0 0-3.83 3.57 21.65 21.65 0 0 0-4.7 15.7c.39 4.4 2.22 8.66 5.23 11.89a16.6 16.6 0 0 0 10.97 5.33c3.4.23 6.78-.6 9.68-2.38a18.73 18.73 0 0 0 3.94-3.17 20.45 20.45 0 0 0 3.07-4.2c.76-1.37 1.57-2.7 2.45-3.99a30.9 30.9 0 0 1 11.96-10.06 27.95 27.95 0 0 1 26.05 1.34 30.85 30.85 0 0 1 10.92 11.36c1.7 3 4.23 5.53 7.24 7.23a17.8 17.8 0 0 0 10.17 2.24 19.33 19.33 0 0 0 12.39-6.11 21.72 21.72 0 0 0 5.84-13.28c.3-3.94-.46-7.93-2.27-11.45a19.8 19.8 0 0 0-3.19-4.5c-1.7-1.8-3.75-3-5.81-4.32ZM511.4 431.45a37.43 37.43 0 0 1-13.19-14.29 36.08 36.08 0 0 1-3.14-25.76 34.55 34.55 0 0 1 16.44-21.5A22.1 22.1 0 0 0 522 356.7a22.16 22.16 0 0 0-5.86-21.87 22.76 22.76 0 0 0-21.87-5.84 22.1 22.1 0 0 0-13.22 9.9 35.44 35.44 0 0 1-12.77 12.41 34.52 34.52 0 0 1-37.64-2.25c-3.94-2.92-6.9-6.54-9.44-10.68a21.1 21.1 0 0 0-17.84-10.4 20.17 20.17 0 0 0-14.57 6.18 21.73 21.73 0 0 0-5.29 20.47 21.81 21.81 0 0 0 9.02 12.69 35.73 35.73 0 0 1 15.2 20.94 35.35 35.35 0 0 1-3.27 26.27c-2.77 4.88-6.8 9-11.65 11.84a19.45 19.45 0 0 0-7.73 8.15 22.02 22.02 0 0 0-.2 19.04c3.11 6.7 9.48 11.8 16.84 12.85 4.74.68 9.65-.36 13.65-3.02 3.88-2.57 5.86-6.5 8.63-10.05 8.45-10.5 23.29-14 35.94-9.89a38.45 38.45 0 0 1 21.11 17.22c3.13 5.3 8.18 9.2 14.09 10.93 7.18 2.08 15.16.49 20.76-4.57 7.4-6.64 8.87-17.8 4.17-26.41a24.04 24.04 0 0 0-8.66-9.16Z"/>
    <path fill="#fff" d="m140.84 103.78-46.26 4.75v-.46l46.26-4.76v.47Zm.2 408.12-99.47-8.92v-18.02l99.47 8.04v18.9Zm-99.1-9.33 98.7 8.83v-17.96l-98.7-8v17.13Zm98.9-231.77-115.59 2.76v-.44l115.6-2.79v.47h-.01Zm0 100.8-73.14-1.72v-.45l73.14 1.7v.48-.01ZM7.26 158.96l-.17.02-6.9.56-.18.02v-8.96l.18-.02 6.9-.6h.17v8.98Zm-6.9.13 6.55-.54v-8.1L.37 151v8.09H.36Zm6.9 55.19H7.1l-6.9.38H.01v-8.94l.18-.01 6.9-.4.17-.02v8.99Zm-6.9-.07 6.55-.35v-8.12l-6.54.38v8.1l-.01-.01Z"/>
    <path fill="#fff" d="m132.12 505.3-.16-.26-4.06-6.78.32-.25 3.9 6.5 3.91-5.84.32.3-4.23 6.34v-.01Z"/>
    <path fill="#F05" d="M319.56 70.89c0 1.81-.65 3.56-1.83 4.93-2.18 2.58-6.25 3.45-8.83.94a6.24 6.24 0 0 1-1.82-4.51 7.6 7.6 0 0 1 3.8-6.56 5.98 5.98 0 0 1 4.8-.57c2.45.82 3.88 3.27 3.88 5.77Zm-89.27 16.16c-3.36.38-5.8-2.65-5.78-5.81a7.51 7.51 0 0 1 3.53-6.31 5.25 5.25 0 0 1 7.61 2.59c1.5 3.9-1.01 9.05-5.36 9.53Zm87.44 81.19c-2.26 2.55-6.33 3.14-8.83.59-3.2-3.23-1.9-8.94 1.98-11.01a5.84 5.84 0 0 1 6.85.95c2.56 2.58 2.3 6.83 0 9.47Zm-83.33 5.56c-2.07 2.44-5.92 3.01-8.21.54-2.92-3.1-1.8-8.6 1.85-10.6a5.4 5.4 0 0 1 7.61 2.89 7.3 7.3 0 0 1-1.25 7.17Zm375.7 79.12a8.37 8.37 0 0 1-8.7 1.84 7.38 7.38 0 0 1-2.51-12.17 8.36 8.36 0 0 1 11.2-.34 7.27 7.27 0 0 1 .01 10.67Zm-105.39 2.79a7.43 7.43 0 0 1-10.31.27 7.24 7.24 0 0 1 0-10.2 7.43 7.43 0 0 1 10.31-.31 7.24 7.24 0 0 1 0 10.24Zm-186.98 4.94a6.04 6.04 0 0 1-8.83.24c-2.45-2.58-2.32-6.8 0-9.43 2.28-2.55 6.4-2.82 8.83-.27a7.05 7.05 0 0 1 0 9.46Zm-83.33 2.21a5.5 5.5 0 0 1-8.2.22c-2.28-2.5-2.15-6.54 0-9.09a5.49 5.49 0 0 1 8.2-.25c2.31 2.5 2.17 6.57 0 9.12Zm272.46 87.69c.02 5.75-6.66 9.01-11.32 5.88-4.65-3.13-4.16-10.51 1.17-12.66a7.48 7.48 0 0 1 10.15 6.77v.01Zm-97.31-1.14c-.01 5.89-7.36 9.21-11.51 4.76-3.98-4.2-1.3-11.85 4.76-11.79 3.77.04 6.75 3.36 6.75 7.03ZM727.36 462c.03 5.33-5.56 8.28-10.33 7.17-3.74-.87-6.94-4.09-6.95-8.06-.04-5.31 5.52-8.25 10.28-7.16 3.75.85 7 4.06 7 8.05Zm-222.65-6.43c-2.9 2.75-7.65 2.3-10.31-.55-2.7-2.81-2.88-7.44 0-10.2 3.72-3.54 10.02-1.67 11.9 2.92a7.13 7.13 0 0 1-1.59 7.83Zm-95.16-10.05c0 4.77-5 8.03-9.37 5.9a7.39 7.39 0 0 1-3.58-9.27 6.52 6.52 0 0 1 8.81-3.25 7.44 7.44 0 0 1 4.14 6.62Zm317.14 128.34c-1.42 2.96-4.82 4.44-8 4.1-4.41-.42-8.6-4.04-8.61-8.66-.02-4.57 4.33-7.47 8.61-7.07a9.97 9.97 0 0 1 6.12 2.86c2.28 2.25 3.31 5.77 1.88 8.76Z"/>
    <path fill="#FBB03B" d="M317.73 353.07c-2.37 2.62-6.5 2.43-8.83-.12a7.07 7.07 0 0 1 0-9.43c2.37-2.64 6.47-2.44 8.83.08a7.06 7.06 0 0 1 0 9.47Zm1.83 87.78c.02 4.52-4.55 7.84-8.68 5.7-3.91-2-5.14-7.76-1.98-10.97 2.5-2.55 6.54-2.13 8.83.44a7.26 7.26 0 0 1 1.83 4.83Zm0 92.49c0 3.42-2.68 6.51-6.27 6.11-4.5-.45-7.4-5.7-5.72-9.81a5.75 5.75 0 0 1 8.17-2.81 7.53 7.53 0 0 1 3.82 6.51Z"/>
    <path fill="#5C00D3" d="M727.36 26.47c0 2.2-1 4.3-2.55 5.84-3.11 3.16-8.58 4.23-12.22 1.31-3.59-2.86-2.94-8.08 0-11.1a9.96 9.96 0 0 1 9.47-2.73 6.99 6.99 0 0 1 5.3 6.68ZM608.85 45.64c-2.9 2.13-7.11 2.53-9.96.13-3.86-3.24-2.39-9 1.24-11.7 3.67-2.72 9.63-2.43 11.71 2.11 1.57 3.41-.12 7.35-3 9.46Zm-101.99 4.84c0 4.06-3.34 7.53-7.31 8.03a6.6 6.6 0 0 1-6.09-2.61c-2.35-3.27-.98-7.86 2.03-10.17a7.8 7.8 0 0 1 6.9-1.42 6.4 6.4 0 0 1 4.47 6.18v-.01Zm-97.84 13.37c-1.36 3.45-5.2 5.81-8.85 4.65a6.14 6.14 0 0 1-4.1-5.95 7.99 7.99 0 0 1 4.1-6.83c2.33-1.3 5.4-1.19 7.41.66 2.05 1.88 2.42 4.96 1.44 7.47Zm317.66 74.62a9.41 9.41 0 0 1-6.3 5.08 8.92 8.92 0 0 1-7.79-1.64 7 7 0 0 1-2.52-5.37c.06-6.96 9.41-11.05 14.74-6.58a7.15 7.15 0 0 1 1.87 8.51Zm-114.88 7.76a8.83 8.83 0 0 1-7.32 5.1 7.39 7.39 0 0 1-7.3-4.16c-1.26-2.82-.41-6.14 1.71-8.3 2.9-2.96 7.98-3.64 11.21-.8a7.07 7.07 0 0 1 1.7 8.16Zm-104.94 4.27a7.84 7.84 0 0 1-3.26 6.25c-2.73 1.97-6.65 2.1-9.19-.26a7.03 7.03 0 0 1-1.57-7.83c1.5-3.63 5.75-5.82 9.55-4.51a6.74 6.74 0 0 1 4.47 6.36v-.01Zm-97.31 6.7c0 3.72-2.98 7.16-6.76 7.4a6.4 6.4 0 0 1-6.72-6.48c0-3.7 2.96-7.16 6.72-7.4a6.41 6.41 0 0 1 6.76 6.47m315.26 92.69a9.4 9.4 0 0 1-9.48 1.94c-4.12-1.48-6.45-6.06-4.58-10.16a8.91 8.91 0 0 1 6.3-4.84 9.08 9.08 0 0 1 7.76 1.91 7.47 7.47 0 0 1 0 11.15Zm-315.26 3.42c0 3.7-2.97 7.03-6.72 7.13a6.67 6.67 0 0 1-6.75-6.75c0-3.67 2.98-6.99 6.68-7.12a6.67 6.67 0 0 1 6.79 6.74Zm317.13 102.88c-1.97 4.15-7.23 5.7-11.35 4.03-3.5-1.39-5.9-5.04-5.1-8.83a7.99 7.99 0 0 1 5.1-5.64c4.2-1.59 9.4.16 11.35 4.3.9 1.94.9 4.22 0 6.14Zm-116.58.9a8.32 8.32 0 0 1-11.21-.14 7.37 7.37 0 0 1 0-10.63c3.97-3.64 10.63-2.43 12.91 2.52a7.25 7.25 0 0 1-1.7 8.25Zm-374-9.69a6.8 6.8 0 0 1-1.7 4.54 5.56 5.56 0 0 1-4.11 1.83c-2.95-.03-5.19-2.51-5.67-5.3-.63-3.57 1.78-7.62 5.67-7.59 3.41.03 5.8 3.28 5.82 6.51m376.32 108.67a7.14 7.14 0 0 1-4.86 6.69 8.63 8.63 0 0 1-10.37-4.56 7.15 7.15 0 0 1 1.69-8.16c2.74-2.45 6.95-2.49 9.94-.45a7.98 7.98 0 0 1 3.6 6.48ZM236.1 436.52c.08 3.21-2.47 6.35-5.8 6.15-3.4-.2-5.83-3.5-5.8-6.75 0-2.79 1.8-5.63 4.69-6.11 3.84-.65 6.95 3.11 6.91 6.71Zm375.74 126.61c-1.29 2.81-4.37 4.27-7.36 3.98a8.78 8.78 0 0 1-5.59-2.73c-2.1-2.18-2.99-5.5-1.7-8.33 1.27-2.81 4.28-4.27 7.29-4.01a8.86 8.86 0 0 1 7.32 5.27c.8 1.82.87 4 .04 5.82Zm-109.46-6.29a7.42 7.42 0 0 1-5.67-.54 8.3 8.3 0 0 1-3.87-4.2c-1.94-4.69 1.53-9.91 6.71-9.41a8.26 8.26 0 0 1 6.74 5.02c1.44 3.57-.08 7.92-3.91 9.13Zm-92.83-15.21c0 3.66-3.04 6.7-6.76 6.32a7.6 7.6 0 0 1-6.19-4.82c-1.34-3.37.02-7.48 3.57-8.76 4.66-1.44 9.38 2.48 9.38 7.26Zm-173.9-13.5c-1.17 3-4.78 4.48-7.61 2.72a7.3 7.3 0 0 1-3.08-8.72 5.3 5.3 0 0 1 7.59-2.74 7.3 7.3 0 0 1 3.1 8.74Z"/>
    <path fill="#fff" d="m.2 94.39 140.64-16.12v9.29L.2 103.06v-8.67Zm13.95 54.65 106.82-9.23v9.2l-106.82 8.77v-8.74Zm0 28 44.32-3.21v8.93l-44.32 3.01v-8.73Zm0 27.99 126.7-7.4v9.3l-126.7 6.83v-8.73ZM.2 250.34l140.64-5.05v9.29L.2 259v-8.67.01Zm0 159.67 51.56 2.3v8.9L.19 418.7V410l.01.01Zm0 19.03 32.3 1.75v8.81L.2 437.7v-8.66Zm0 57.06 36.8 3.07V498L.2 494.78v-8.68Zm44.75 3.73 38.52 3.2v9.03l-38.52-3.36v-8.87ZM.2 448.06l99 6.32v9.11l-99-6.76v-8.67Zm0-149.49 40.75-.47v8.85l-40.76.3v-8.68H.2Zm0 45.89 102 1.18v9.12l-102-1.63v-8.67Z" opacity=".2"/>
    <path fill="#FF0045" d="M97.97 111.46a6.03 6.03 0 0 0 .9-5.54c-.2-.55-.5-1.05-.9-1.48a3.44 3.44 0 0 0-2.97-1.15c-.58.07-1.13.26-1.63.57-.51.3-.96.72-1.33 1.2a6.04 6.04 0 0 0-1.19 3.18L.2 117.56v.88l90.65-9.3c.04.48.13.97.29 1.44.2.55.5 1.05.9 1.48a3.44 3.44 0 0 0 2.96 1.16 3.96 3.96 0 0 0 1.63-.56 4.8 4.8 0 0 0 1.34-1.2Zm-68.4 161.77a5.7 5.7 0 0 1-1.15 3.43c-.35.43-.77.79-1.25 1.06a3.3 3.3 0 0 1-3.05.06c-.48-.24-.9-.58-1.24-1a4.84 4.84 0 0 1-.84-1.5 5.65 5.65 0 0 1-.3-1.42l-21.55.52v-.87l21.56-.52a5.66 5.66 0 0 1 1.13-2.98c.34-.43.76-.79 1.24-1.06a3.25 3.25 0 0 1 3.05-.08c.48.25.9.59 1.25 1a5.16 5.16 0 0 1 1.14 3.36h.01ZM140.5 324.2a5.75 5.75 0 0 0-.94-5.56 4.38 4.38 0 0 0-1.38-1.08 3.82 3.82 0 0 0-3.4 0c-.53.27-1 .64-1.39 1.1a5.13 5.13 0 0 0-1.25 3.09L.19 321.73v.88l131.95.09a5.16 5.16 0 0 0 1.25 3.1c.38.45.85.82 1.38 1.09a3.81 3.81 0 0 0 3.4 0 4.31 4.31 0 0 0 1.39-1.08c.4-.48.73-1.02.94-1.61Zm-68.3 45.56c0 .64-.1 1.29-.32 1.9a4.9 4.9 0 0 1-.88 1.53 4 4 0 0 1-1.3 1.02 3.45 3.45 0 0 1-3.18-.08c-.5-.27-.94-.64-1.3-1.08a5.25 5.25 0 0 1-1.18-3.04L.2 368.5v-.87l63.85 1.49a5.33 5.33 0 0 1 1.17-2.99 4 4 0 0 1 1.3-1.01 3.44 3.44 0 0 1 3.18.06c.5.27.94.63 1.3 1.08a5.8 5.8 0 0 1 1.2 3.5Zm-65.1-192-6.9.5v8.52l6.9-.46v-8.56Z"/>
    <path fill="#270635" d="m3.73 185.55-.34-.36-2.25-2.41.48-.68 1.91 2.05 2.09-5.06.63.36-2.3 5.58-.22.52Z"/>
</svg>
