<svg xmlns="http://www.w3.org/2000/svg" fill="none" viewBox="0 0 895 417">
  <path stroke="#fff" stroke-miterlimit="10" stroke-width="3" d="M182.78 14.04S21.11 47.53 21.11 94c0 36.62 59.5 43.61 59.5 43.61" opacity=".1"/>
  <path fill="#fff" d="M37 99.14a1.54 1.54 0 1 1-3.08.02 1.54 1.54 0 0 1 3.08-.02Zm4.95-2.74a1.54 1.54 0 1 1-3.08 0 1.54 1.54 0 0 1 3.08 0Zm.5 5.85a1.54 1.54 0 1 1-3.08 0 1.54 1.54 0 0 1 3.08 0Zm-5.15-7.39a1.54 1.54 0 1 1-.46-1.08c.29.29.45.67.45 1.08h.01Zm2.07-3.41a1.54 1.54 0 1 1-3.08 0 1.54 1.54 0 0 1 3.08 0Zm-6.08 13.88a1.54 1.54 0 1 1-3.08 0 1.54 1.54 0 0 1 3.08 0Zm1.21-3.68a1.54 1.54 0 1 1-.44-1.08c.28.28.45.67.45 1.08h-.01Zm-6.8.6a1.54 1.54 0 1 1-.44-1.09c.29.29.45.68.45 1.09h-.01Zm3.74-2.78a1.54 1.54 0 1 1-3.07.02 1.54 1.54 0 0 1 3.07-.02Zm1.53-4.94a1.54 1.54 0 1 1-3.08 0 1.54 1.54 0 0 1 3.08 0Zm6.75 14.34a1.54 1.54 0 1 1-3.08 0 1.54 1.54 0 0 1 3.08 0Z" opacity=".3"/>
  <path fill="#fff" d="M31.2 96.75a1.54 1.54 0 1 1-.44-1.09c.29.29.45.68.45 1.09" opacity=".3"/>
  <path fill="#fff" d="M28.67 98.29a1.54 1.54 0 1 1-3.08 0 1.54 1.54 0 0 1 3.08 0Z" opacity=".3"/>
  <path fill="#fff" d="M26.17 97.94a1.54 1.54 0 1 1-3.08 0 1.54 1.54 0 0 1 3.08 0Zm-.88-6.83a1.54 1.54 0 1 1-3.08 0 1.54 1.54 0 0 1 3.08 0Zm3.07-7.63a1.54 1.54 0 1 1-3.08.02 1.54 1.54 0 0 1 3.08-.02Zm9.82 1.12a1.54 1.54 0 1 1-.45-1.08c.29.3.45.68.45 1.09v-.01Zm-4.89-2.24a1.54 1.54 0 1 1-3.08 0 1.54 1.54 0 0 1 3.08 0Z" opacity=".3"/>
  <path fill="#fff" d="M27.7 90.32a1.54 1.54 0 1 1-.44-1.08c.28.28.45.67.45 1.08h-.01Zm-1.53-4.89a1.54 1.54 0 1 1-3.08.02 1.54 1.54 0 0 1 3.08-.02Zm7.12-9.29a1.54 1.54 0 1 1-.45-1.08c.29.29.45.68.45 1.09v-.01Zm2.47 12.36a1.54 1.54 0 1 1-.45-1.08c.29.29.45.68.45 1.09v-.01Zm-3.49-1.53a1.54 1.54 0 1 1-3.08 0 1.54 1.54 0 0 1 3.08 0Zm-2.6-6.56a1.54 1.54 0 1 1-3.08 0 1.54 1.54 0 0 1 3.08 0Zm-1.31 14.81a1.54 1.54 0 1 1-3.08 0 1.54 1.54 0 0 1 3.08 0Z" opacity=".3"/>
  <path fill="#fff" d="M28.64 91.09a1.54 1.54 0 1 1-.57-3.03 1.54 1.54 0 0 1 .57 3.03Zm-5.72 4.95a1.54 1.54 0 1 1-.6-3.02 1.54 1.54 0 0 1 .6 3.02Zm5.72 12.8a1.53 1.53 0 0 1-1.9-1.2 1.54 1.54 0 1 1 1.9 1.2" opacity=".3"/>
  <path fill="#fff" d="M26.45 109.62a1.53 1.53 0 0 1-1.9-1.2 1.54 1.54 0 0 1 2.42-1.53 1.54 1.54 0 0 1-.52 2.73Zm2.19 3.83a1.53 1.53 0 0 1-1.9-1.2 1.54 1.54 0 0 1 2.42-1.53 1.54 1.54 0 0 1-.52 2.73Zm7.94 6.14a1.53 1.53 0 0 1-1.9-1.2 1.54 1.54 0 0 1 2.42-1.53 1.54 1.54 0 0 1-.52 2.73Zm-4.03-1.96a1.53 1.53 0 0 1-1.8-1.84 1.54 1.54 0 1 1 1.8 1.84Zm-7.64-11.09a1.54 1.54 0 0 1-1.72-2 1.54 1.54 0 1 1 2.28 1.79c-.17.11-.36.19-.56.22v-.01Zm8.65 5.69a1.53 1.53 0 0 1-1.8-1.84 1.54 1.54 0 1 1 1.8 1.84Zm11.36 5.83a1.54 1.54 0 0 1-1.72-2 1.54 1.54 0 1 1 2.28 1.79c-.17.11-.36.19-.56.22v-.01Zm-5.27 4.79a1.55 1.55 0 0 1-1.57-2.36 1.54 1.54 0 1 1 1.57 2.36Zm6.95 4.38a1.53 1.53 0 0 1-1.9-1.2 1.54 1.54 0 0 1 2.42-1.53 1.54 1.54 0 0 1-.52 2.73Zm6.92 2.54a1.56 1.56 0 0 1-1.15-.24 1.53 1.53 0 0 1-.4-2.14 1.55 1.55 0 0 1 2.13-.4 1.54 1.54 0 0 1-.58 2.78Zm9.53 1.83a1.54 1.54 0 0 1-1.72-2 1.54 1.54 0 1 1 2.72 1.37c-.24.34-.6.57-1 .64v-.01Zm3.47 2.9a1.54 1.54 0 1 1 .99-.63c-.23.34-.59.56-.99.64v-.01Zm7.68-1.4a1.54 1.54 0 1 1 .55-.21c-.17.1-.36.18-.56.22l.01-.01Zm5.22 4.49a1.55 1.55 0 0 1-1.81-1.54 1.54 1.54 0 1 1 1.81 1.54Zm4.1-3.96a1.54 1.54 0 1 1 .8-.4c-.22.21-.5.36-.8.41v-.01Zm-9.89-9.61a1.53 1.53 0 0 1-1.8-1.84 1.54 1.54 0 1 1 1.8 1.84Zm-3.82 3.89a1.55 1.55 0 0 1-1.57-2.36 1.54 1.54 0 1 1 1.57 2.36ZM67.7 114.6a1.54 1.54 0 0 1-1.75-1.98 1.54 1.54 0 1 1 1.74 1.99l.01-.01Zm-2.87-5.46a1.53 1.53 0 0 1-1.9-1.2 1.54 1.54 0 0 1 2.42-1.53 1.54 1.54 0 0 1-.52 2.73Zm-4.36-1.5a1.55 1.55 0 0 1-1.82-1.54 1.54 1.54 0 0 1 3.06-.25 1.54 1.54 0 0 1-1.24 1.8v-.01Zm-6.64-.34a1.54 1.54 0 0 1-1.72-2 1.54 1.54 0 1 1 2.72 1.37c-.24.34-.6.57-1 .64v-.01Zm-3.67.34a1.54 1.54 0 1 1 .99-.64c-.23.34-.59.57-.99.65v-.01Zm-4.74.44a1.55 1.55 0 0 1-1.57-2.36 1.54 1.54 0 1 1 1.57 2.36Zm-.1 4.17a1.54 1.54 0 0 1 2.37-1.92 1.53 1.53 0 0 1-.35 2.49 1.54 1.54 0 0 1-2.02-.57ZM48.6 111a1.54 1.54 0 1 1 .36.46c-.15-.13-.28-.3-.37-.47l.01.01Zm7.72-.5a1.54 1.54 0 1 1 0 .01v-.01Zm-4.45 3.29a1.54 1.54 0 0 1 2.38-1.9 1.54 1.54 0 1 1-2.38 1.9Zm-3.6 4.26a1.54 1.54 0 1 1 2.75-1.4 1.54 1.54 0 0 1-2.75 1.4Zm-2.95 3.62a1.54 1.54 0 0 1 2.37-1.92 1.53 1.53 0 0 1-.35 2.49 1.54 1.54 0 0 1-2.02-.57Zm2.95 1.53a1.54 1.54 0 1 1 0 .01" opacity=".3"/>
  <path fill="#fff" d="M48.27 126.41a1.54 1.54 0 1 1 2.74-1.41 1.54 1.54 0 0 1-2.74 1.41Zm2.93-1.14a1.54 1.54 0 1 1 2.63-1.6 1.54 1.54 0 0 1-2.63 1.6Zm5.54-1.02a1.54 1.54 0 1 1 2.75-1.39 1.54 1.54 0 0 1-2.75 1.39Zm.19 3.78a1.54 1.54 0 0 1 2.38-1.9 1.54 1.54 0 1 1-2.38 1.9" opacity=".3"/>
  <path fill="#fff" d="M58.83 128.95a1.54 1.54 0 1 1 2.75-1.4 1.54 1.54 0 0 1-2.75 1.4Zm1.04-8.82a1.54 1.54 0 1 1 2.75-1.39 1.54 1.54 0 0 1-2.75 1.39Zm-7.27-.43a1.54 1.54 0 1 1 .36.46c-.15-.13-.28-.3-.37-.47l.01.01ZM38 113.79a1.54 1.54 0 0 1 2.38-1.9 1.54 1.54 0 1 1-2.38 1.9Zm9.26-15.49a1.54 1.54 0 1 1 2.75-1.4 1.54 1.54 0 0 1-2.75 1.4Zm-2.31-15.24a1.54 1.54 0 1 1 2.74-1.41 1.54 1.54 0 0 1-2.74 1.41Zm-10.02-3.41a1.54 1.54 0 1 1 2.68-1.52 1.54 1.54 0 0 1-2.68 1.52Zm-4.03 7.2a1.54 1.54 0 1 1 2.68-1.52 1.54 1.54 0 0 1-2.68 1.52Zm-3.86-1.13a1.54 1.54 0 1 1 2.74-1.41 1.54 1.54 0 0 1-2.74 1.41Zm-3.47 3.48a1.54 1.54 0 1 1 2.68-1.52 1.54 1.54 0 0 1-2.68 1.52Zm2.67 3.81a1.54 1.54 0 1 1 2.68-1.52A1.54 1.54 0 0 1 26.24 93Zm4.14-2.27a1.54 1.54 0 1 1 2.68-1.52 1.54 1.54 0 0 1-2.68 1.52Zm-8.65 9.1a1.54 1.54 0 1 1 2.68-1.52 1.54 1.54 0 0 1-2.68 1.52Zm5.7 4.04a1.54 1.54 0 1 1 2.75-1.39 1.54 1.54 0 0 1-2.75 1.39Zm7.53.82a1.54 1.54 0 0 1 2.38-1.9 1.54 1.54 0 1 1-2.38 1.9Zm-1.43 4.1a1.54 1.54 0 1 1 2.74-1.41 1.54 1.54 0 0 1-2.74 1.41Zm-4.16 1.86a1.55 1.55 0 0 1 1.21-2.34 1.54 1.54 0 1 1-1.21 2.34Zm14.68-8.86a1.54 1.54 0 1 1 2.75-1.39 1.54 1.54 0 0 1-2.75 1.39ZM41.37 98a1.54 1.54 0 1 1 2.74-1.41A1.54 1.54 0 0 1 41.37 98Zm3.58-4.25a1.54 1.54 0 1 1 2.68-1.52 1.54 1.54 0 0 1-2.68 1.52Zm-4.21-1.85a1.54 1.54 0 1 1 2.68-1.52 1.54 1.54 0 0 1-2.68 1.52Zm3.71-3.61a1.54 1.54 0 1 1 2.74-1.41 1.54 1.54 0 0 1-2.74 1.41Zm5.35 3.86a1.54 1.54 0 1 1 2.68-1.52 1.54 1.54 0 0 1-2.68 1.52Zm.79 4.61a1.54 1.54 0 1 1 2.74-1.41 1.54 1.54 0 0 1-2.74 1.41Zm2.52 4.04a1.54 1.54 0 1 1 0 .01v-.01Zm2.24-6.27a1.54 1.54 0 1 1 3.08-.02 1.54 1.54 0 0 1-3.08.02Zm.81-4.21a1.54 1.54 0 1 1 3.08 0 1.54 1.54 0 0 1-3.08 0Zm2.5-9.12a1.54 1.54 0 1 1 0 .01v-.01Zm-5.42-6.05a1.54 1.54 0 1 1 3.08-.02 1.54 1.54 0 0 1-3.08.02Zm6.5-6.39a1.54 1.54 0 1 1 3.03.53 1.54 1.54 0 0 1-3.03-.53Zm-12.3 6.73a1.54 1.54 0 1 1 3.03.53 1.54 1.54 0 0 1-3.03-.53Zm-7.06 4.03a1.54 1.54 0 1 1 3.03.53 1.54 1.54 0 0 1-3.03-.53Zm0 4.48a1.54 1.54 0 1 1 .2 1.15 1.54 1.54 0 0 1-.2-1.16V84Zm2.76-9.74a1.54 1.54 0 1 1 3.05.44 1.54 1.54 0 0 1-3.05-.44Zm-6.8-.99a1.54 1.54 0 1 1 3.03.53 1.54 1.54 0 0 1-3.03-.53Zm-2.74 2.22a1.54 1.54 0 1 1 .21 1.16 1.54 1.54 0 0 1-.2-1.16h-.01Zm-3.3 4.03a1.54 1.54 0 1 1 3.03.53 1.54 1.54 0 0 1-3.03-.53" opacity=".3"/>
  <path fill="#fff" d="M28.17 77.11a1.54 1.54 0 1 1 3.03.53 1.54 1.54 0 0 1-3.03-.53Zm4.28-4.14a1.54 1.54 0 1 1 3.03.53 1.54 1.54 0 0 1-3.03-.53Zm4.87-4.07a1.54 1.54 0 1 1 3.03.53 1.54 1.54 0 0 1-3.03-.53Zm5.82-4.12a1.54 1.54 0 1 1 3.03.53 1.54 1.54 0 0 1-3.03-.53Zm5.32-3.38a1.54 1.54 0 1 1 .2 1.15 1.54 1.54 0 0 1-.2-1.16v.01Zm7.01-4.16a1.54 1.54 0 1 1 3.05.44 1.54 1.54 0 0 1-3.05-.44Zm5.81-2.69a1.54 1.54 0 1 1 3.03.53 1.54 1.54 0 0 1-3.03-.53Zm2.4 6.08a1.54 1.54 0 1 1 3.05.44 1.54 1.54 0 0 1-3.05-.44Zm-9.44 2.07a1.54 1.54 0 1 1 3.03.53 1.54 1.54 0 0 1-3.03-.53Zm-2.61 6.2a1.54 1.54 0 1 1 3.03.53 1.54 1.54 0 0 1-3.03-.53Zm-5.27-.14a1.54 1.54 0 1 1 3.03.53 1.54 1.54 0 0 1-3.03-.53Zm-3.9 1.54a1.54 1.54 0 1 1 .2 1.15 1.54 1.54 0 0 1-.2-1.16v.01Zm14.04 1.81a1.54 1.54 0 1 1 .19 1.16 1.54 1.54 0 0 1-.2-1.16h.01Zm7.04 4.52a1.54 1.54 0 1 1 3.03.53 1.54 1.54 0 0 1-3.03-.53Zm7.03-4.07a1.54 1.54 0 1 1 .2 1.15 1.54 1.54 0 0 1-.2-1.16v.01Zm0 6.96a1.54 1.54 0 1 1 3.03.53 1.54 1.54 0 0 1-3.03-.53Zm-3.53 1.71a1.54 1.54 0 1 1 3.03.53 1.54 1.54 0 0 1-3.03-.53Zm-5.76 3.12a1.54 1.54 0 1 1 3.03.53 1.54 1.54 0 0 1-3.03-.53Zm-2.94 1.5a1.54 1.54 0 1 1 .2 1.15 1.54 1.54 0 0 1-.2-1.16v.01Zm3.64 2.39a1.54 1.54 0 1 1 3.03.53 1.54 1.54 0 0 1-3.03-.53Zm-.02 4.75a1.54 1.54 0 1 1 3.03.53 1.54 1.54 0 0 1-3.03-.53Zm-7.39-7.37a1.54 1.54 0 1 1 3.03.53 1.54 1.54 0 0 1-3.03-.53Zm2.24-6.1a1.54 1.54 0 1 1 3.03.53 1.54 1.54 0 0 1-3.03-.53" opacity=".3"/>
  <path fill="#fff" d="M57.16 74.8a1.54 1.54 0 1 1 0 .01v-.01Zm9.9-.52a1.54 1.54 0 1 1 3.01.66 1.54 1.54 0 0 1-3.01-.66Zm-1.9-4.81a1.54 1.54 0 1 1 3.05.44 1.54 1.54 0 0 1-3.05-.44Zm3.67.83a1.54 1.54 0 1 1 .2 1.15 1.54 1.54 0 0 1-.2-1.16v.01Zm2.84-2.51a1.54 1.54 0 1 1 3.03.53 1.54 1.54 0 0 1-3.03-.53Zm3.08 2.27a1.54 1.54 0 1 1 3.03.53 1.54 1.54 0 0 1-3.03-.53Z" opacity=".3"/>
  <path fill="#fff" d="M74.1 72.97a1.54 1.54 0 1 1 .19 1.16 1.54 1.54 0 0 1-.2-1.16h.01Zm4.35-4.8a1.54 1.54 0 1 1 3.03.53 1.54 1.54 0 0 1-3.03-.53Zm2.89-1.98a1.54 1.54 0 1 1 3.03.53 1.54 1.54 0 0 1-3.03-.53Zm-2.89-2.23a1.54 1.54 0 1 1 3.03.53 1.54 1.54 0 0 1-3.03-.53Zm-3.22.33a1.54 1.54 0 1 1 3.03.53 1.54 1.54 0 0 1-3.03-.53Zm-3.77-1.57a1.54 1.54 0 1 1 3.05.44 1.54 1.54 0 0 1-3.05-.44Zm-2.63 2.37a1.54 1.54 0 1 1 3.03.53 1.54 1.54 0 0 1-3.03-.53Zm-3.51-.94a1.54 1.54 0 1 1 3.05.44 1.54 1.54 0 0 1-3.05-.44Zm-3.93 2.04a1.54 1.54 0 1 1 3.03.53 1.54 1.54 0 0 1-3.03-.53Zm-3.09-2.04a1.54 1.54 0 1 1 .2 1.15 1.5 1.5 0 0 1-.21-1.15h.01Zm.4-4.32a1.54 1.54 0 1 1 3.03.53 1.54 1.54 0 0 1-3.03-.53Zm-.36-3.74a1.54 1.54 0 1 1 3.03.53 1.54 1.54 0 0 1-3.03-.53Zm-5.36 2.46a1.54 1.54 0 1 1 3.03.53 1.54 1.54 0 0 1-3.03-.53" opacity=".3"/>
  <path fill="#fff" d="M50.46 60.27a1.54 1.54 0 1 1 3.04.53 1.54 1.54 0 0 1-3.04-.53Z" opacity=".3"/>
  <path fill="#fff" d="M50.98 63.54a1.54 1.54 0 1 1 3.03.53 1.54 1.54 0 0 1-3.03-.53Zm2 2.65a1.54 1.54 0 1 1 3.03.53 1.54 1.54 0 0 1-3.03-.53Zm-4.28 1.13a1.54 1.54 0 1 1 3.03.53 1.54 1.54 0 0 1-3.03-.53" opacity=".3"/>
  <path fill="#fff" d="M48.04 64.02a1.54 1.54 0 1 1 3.03.53 1.54 1.54 0 0 1-3.03-.53" opacity=".3"/>
  <path fill="#fff" d="M45.3 64.72a1.54 1.54 0 1 1 3.03.53 1.54 1.54 0 0 1-3.03-.53" opacity=".3"/>
  <path fill="#fff" d="M45.7 62.97a1.54 1.54 0 1 1 .19 1.16 1.54 1.54 0 0 1-.2-1.16h.01Zm-4.75 3.22a1.54 1.54 0 1 1 3.03.53 1.54 1.54 0 0 1-3.03-.53Zm-5.8 4.68a1.54 1.54 0 1 1 3.03.53 1.54 1.54 0 0 1-3.03-.53Z" opacity=".3"/>
  <path fill="#fff" d="M37.74 71.46a1.54 1.54 0 1 1 3.04.53 1.54 1.54 0 0 1-3.04-.53Zm2.76-3.29a1.54 1.54 0 1 1 3.04.53 1.54 1.54 0 0 1-3.04-.53Zm.45 4.39a1.54 1.54 0 1 1 .2 1.15 1.54 1.54 0 0 1-.2-1.16" opacity=".3"/>
  <path fill="#fff" d="M38.66 74.37a1.54 1.54 0 1 1 3.03.53 1.54 1.54 0 0 1-3.03-.53ZM37 80.68a1.54 1.54 0 1 1 3.03.53 1.54 1.54 0 0 1-3.03-.53Zm-4.88-2.25a1.54 1.54 0 1 1 3.04.53 1.54 1.54 0 0 1-3.04-.53Zm1.52 3.88a1.54 1.54 0 1 1 3.03.53 1.54 1.54 0 0 1-3.03-.53" opacity=".3"/>
  <path fill="#fff" d="M32.72 84.28a1.54 1.54 0 1 1 3.05.44 1.54 1.54 0 0 1-3.05-.44Zm5.94 2.35a1.54 1.54 0 1 1 3.04.53 1.54 1.54 0 0 1-3.04-.53Zm-3.5.3a1.54 1.54 0 1 1 3.04.53 1.54 1.54 0 0 1-3.04-.53Zm-.42 3.75a1.54 1.54 0 1 1 3.05.44 1.54 1.54 0 0 1-3.05-.44Zm-2.95 1.56a1.54 1.54 0 1 1 3.04.53 1.54 1.54 0 0 1-3.04-.53Zm-4.09 0a1.54 1.54 0 1 1 3.04.53 1.54 1.54 0 0 1-3.04-.53Zm-2.18-5.22a1.54 1.54 0 1 1 3.04.53 1.54 1.54 0 0 1-3.04-.53Zm2.41-5a1.54 1.54 0 1 1 3.04.53 1.54 1.54 0 0 1-3.04-.53Zm-2.82 8.77a1.54 1.54 0 1 1 .36 3.06 1.54 1.54 0 0 1-.36-3.06Zm-1.15 3.41a1.54 1.54 0 1 1 .36 3.06 1.54 1.54 0 0 1-.36-3.06Zm8.54 1.88a1.54 1.54 0 1 1 .38 3.06 1.54 1.54 0 0 1-.38-3.06Zm-3 4.49a1.54 1.54 0 0 1 .65 3 1.54 1.54 0 0 1-1.31-.17 1.53 1.53 0 0 1-.69-1.13 1.54 1.54 0 0 1 1.34-1.7h.01Zm8.82 2.78a1.53 1.53 0 0 1 1.83 1.33 1.54 1.54 0 1 1-1.83-1.33Zm-.59-6.32a1.54 1.54 0 1 1 .36 3.06 1.54 1.54 0 0 1-.36-3.06Zm2.25-5.23a1.54 1.54 0 1 1 .36 3.06 1.54 1.54 0 0 1-.36-3.06Zm6.52 1.54a1.54 1.54 0 1 1-1.02.57c.26-.32.63-.52 1.03-.57h-.01Zm3.28-.18a1.54 1.54 0 1 1 1.41 2.74 1.54 1.54 0 0 1-1.41-2.74Zm-3.6-4.84a1.54 1.54 0 1 1-.76.89c.12-.4.4-.71.76-.9v.01Zm-3.46-1.65a1.54 1.54 0 1 1 1.52 2.68 1.54 1.54 0 0 1-1.52-2.68Zm5.88-1.85a1.54 1.54 0 1 1-.76.89c.12-.4.4-.71.76-.9v.01Zm3.38 1.91a1.54 1.54 0 1 1 1.52 2.68 1.54 1.54 0 0 1-1.52-2.68Zm-.72-4.04a1.54 1.54 0 1 1 1.52 2.68 1.54 1.54 0 0 1-1.52-2.68ZM49.4 78.3a1.54 1.54 0 1 1 1.39 2.75 1.54 1.54 0 0 1-1.39-2.75" opacity=".3"/>
  <path fill="#fff" d="M50.98 77.58a1.54 1.54 0 1 1 1.52 2.68 1.54 1.54 0 0 1-1.52-2.68" opacity=".3"/>
  <path fill="#fff" d="M53.78 77.28a1.54 1.54 0 1 1 1.52 2.68 1.54 1.54 0 0 1-1.52-2.68Zm-8.04.3a1.54 1.54 0 1 1 1.39 2.75 1.54 1.54 0 0 1-1.39-2.75Zm-3.7-1.03a1.54 1.54 0 1 1 1.52 2.67 1.54 1.54 0 0 1-1.52-2.67Z" opacity=".3"/>
  <path fill="#fff" d="M45.44 75.31a1.54 1.54 0 1 1 1.52 2.68 1.54 1.54 0 0 1-1.52-2.68Zm-2.17 7.49a1.54 1.54 0 1 1-.76.9c.12-.39.4-.7.76-.89v-.01Zm3.89 29.94a1.53 1.53 0 0 1 1.75.16 1.54 1.54 0 1 1-1.75-.16Zm-7.38 3.9a1.54 1.54 0 0 1 1.39 2.75 1.54 1.54 0 0 1-1.39-2.75Zm-7.5-3.9a1.53 1.53 0 0 1 1.75.16 1.54 1.54 0 1 1-1.75-.16" opacity=".3"/>
  <path fill="#fff" d="M30.13 111.72a1.54 1.54 0 0 1 1.39 2.75 1.54 1.54 0 0 1-2.16-1.86c.13-.38.4-.7.77-.89Zm29.33-34.44a1.54 1.54 0 1 1 1.39 2.75 1.54 1.54 0 0 1-1.39-2.75" opacity=".3"/>
  <path fill="#fff" d="M60.01 74.98a1.54 1.54 0 1 1 1.52 2.68 1.54 1.54 0 0 1-1.52-2.68Zm7.66-17.86a1.54 1.54 0 1 1-.5 3.04 1.54 1.54 0 0 1 .5-3.04Zm1.55-6.79a1.54 1.54 0 1 1-.36 3.06 1.54 1.54 0 0 1 .36-3.06" opacity=".3"/>
  <path fill="#fff" d="M65.75 53.35a1.54 1.54 0 1 1 2.67 1.54 1.54 1.54 0 0 1-2.67-1.54Zm-4.19 2.3a1.54 1.54 0 1 1 2.67 1.54 1.54 1.54 0 0 1-2.67-1.54Zm-.2 4.04a1.54 1.54 0 1 1 2.67 1.54 1.54 1.54 0 0 1-2.67-1.54Zm-6.96 1.27a1.54 1.54 0 1 1-.14 1.17c-.1-.4-.05-.82.15-1.17h-.01Zm15.25-1.74a1.54 1.54 0 1 1 2.74 1.42 1.54 1.54 0 0 1-2.74-1.42Zm1.01-4.82a1.54 1.54 0 1 1 2.67 1.54 1.54 1.54 0 0 1-2.67-1.54Zm5.89-7.12a1.54 1.54 0 1 1 2.67 1.54 1.54 1.54 0 0 1-2.67-1.54Zm3.8 4.3a1.54 1.54 0 1 1 2.67 1.54 1.54 1.54 0 0 1-2.67-1.54Zm-3.8 2.6a1.54 1.54 0 1 1 2.67 1.54 1.54 1.54 0 0 1-2.67-1.54" opacity=".3"/>
  <path fill="#fff" d="M72.73 55.27a1.54 1.54 0 1 1 2.67 1.54 1.54 1.54 0 0 1-2.67-1.54" opacity=".3"/>
  <path fill="#fff" d="M74.26 57.32a1.54 1.54 0 1 1 2.73 1.42 1.54 1.54 0 0 1-2.73-1.42Zm7.72 0a1.54 1.54 0 1 1 2.67 1.54 1.54 1.54 0 0 1-2.67-1.54Z" opacity=".3"/>
  <path fill="#fff" d="M80.9 59.98a1.54 1.54 0 1 1 2.67 1.54 1.54 1.54 0 0 1-2.67-1.54Zm3.4 3.12a1.54 1.54 0 1 1-.16 1.17c-.1-.4-.05-.82.15-1.17h.01Zm-7.38-4.24a1.54 1.54 0 1 1 2.73 1.42 1.54 1.54 0 0 1-2.73-1.42" opacity=".3"/>
  <path fill="#fff" d="M75.59 61.31a1.54 1.54 0 1 1 2.67 1.54 1.54 1.54 0 0 1-2.67-1.54Zm6.39-.55a1.54 1.54 0 1 1 2.62-1.63 1.54 1.54 0 0 1-2.62 1.63Zm6.7-5.61a1.54 1.54 0 1 1 2.62-1.63 1.54 1.54 0 0 1-2.62 1.63Zm3.95 1.65a1.54 1.54 0 1 1 0 .01" opacity=".3"/>
  <path fill="#fff" d="M96.4 60.2a1.54 1.54 0 1 1 .52-2.11 1.54 1.54 0 0 1-.53 2.1l.01.01Zm56.82-32.88a1.54 1.54 0 1 1-1.68-2.58 1.54 1.54 0 0 1 1.68 2.58Zm-10.94 7.01a1.54 1.54 0 1 1-1.68-2.58 1.54 1.54 0 0 1 1.68 2.58" opacity=".3"/>
  <path fill="#fff" d="M140.18 32.91a1.54 1.54 0 1 1-.58-3.02 1.54 1.54 0 0 1 .58 3.02Zm-1.88-3.96a1.54 1.54 0 1 1-.58-3.02 1.54 1.54 0 0 1 .58 3.02Zm-3.54 5.15a1.54 1.54 0 1 1-.36-3.06 1.54 1.54 0 0 1 .36 3.06Zm-2.61-3.61a1.54 1.54 0 1 1-.6-3.02 1.54 1.54 0 0 1 .6 3.02Zm-6.93 2.42a1.54 1.54 0 1 1-.36-3.06 1.54 1.54 0 0 1 .36 3.06Zm-1.79 5.55a1.54 1.54 0 1 1-.6-3.02 1.54 1.54 0 0 1 .6 3.02Zm-3.82-.56a1.54 1.54 0 1 1-.36-3.06 1.54 1.54 0 0 1 .36 3.06Z" opacity=".3"/>
  <path fill="#fff" d="M117.9 36.54a1.54 1.54 0 1 1 .01 0" opacity=".3"/>
  <path fill="#fff" d="M115.4 35.8a1.54 1.54 0 1 1 1.02-.57c-.26.32-.63.52-1.03.57h.01Zm-1.8 3.8a1.54 1.54 0 1 1 .01 0h-.01Zm5.52 4.45a1.54 1.54 0 1 1-.58-3.02 1.54 1.54 0 0 1 .58 3.02Zm-2.11 3.21a1.54 1.54 0 1 1-.36-3.06 1.54 1.54 0 0 1 .36 3.06Zm-5.44 0a1.54 1.54 0 1 1-.36-3.06 1.54 1.54 0 0 1 .36 3.06Zm-5.07 6.12a1.54 1.54 0 1 1 .01 0h-.01Zm.86-6.58a1.54 1.54 0 1 1-.58-3.02 1.54 1.54 0 0 1 .58 3.02Zm-4.38.92a1.54 1.54 0 1 1-.58-3.02 1.54 1.54 0 0 1 .58 3.02Zm3.52-4.16a1.54 1.54 0 1 1 .01 0h-.01ZM104.97 40a1.54 1.54 0 1 1-.36-3.06 1.54 1.54 0 0 1 .36 3.06Z" opacity=".3"/>
  <path fill="#fff" d="M107.73 37.9a1.54 1.54 0 1 1-.36-3.06 1.54 1.54 0 0 1 .36 3.06Zm-5.78 2.6a1.54 1.54 0 0 1-1.16 1.5c-.23.05-.46.06-.68.01a1.54 1.54 0 1 1 1.84-1.52" opacity=".3"/>
  <path fill="#fff" d="M100.41 39.78a1.54 1.54 0 0 1-1.16 1.5c-.23.05-.46.06-.68.01a1.54 1.54 0 1 1 1.84-1.51Zm-3.31 1.05a1.54 1.54 0 1 1-3.04-.53 1.54 1.54 0 0 1 3.04.53" opacity=".3"/>
  <path fill="#fff" d="M96 42.87a1.54 1.54 0 1 1-.19-1.16c.22.35.29.76.2 1.16H96Zm4.13 2.75a1.54 1.54 0 1 1-3.03-.53 1.54 1.54 0 0 1 3.03.53Z" opacity=".3"/>
  <path fill="#fff" d="M97.54 46.85a1.54 1.54 0 1 1-3.05-.44 1.54 1.54 0 0 1 3.05.44Zm4.36 3.08a1.54 1.54 0 1 1-.19-1.16c.22.34.29.76.2 1.16h-.01Zm-3.06 1.43a1.54 1.54 0 1 1-3.03-.53 1.54 1.54 0 0 1 3.03.53Zm-6.97-2.19a1.54 1.54 0 1 1-3.04-.53 1.54 1.54 0 0 1 3.04.53" opacity=".3"/>
  <path fill="#fff" d="M89.17 48.63a1.54 1.54 0 1 1-3.04-.53 1.54 1.54 0 0 1 3.04.53Zm-1.57 9.28a1.54 1.54 0 1 1-.19-1.16c.22.35.29.76.2 1.16h-.01Zm-2.2-7.57a1.54 1.54 0 1 1-.21-1.16c.22.35.29.76.2 1.16h.01Zm-1.67-4.26a1.54 1.54 0 1 1-3.04-.53 1.54 1.54 0 0 1 3.04.53Zm-58.65 55.4a1.54 1.54 0 1 1-2.62 1.63 1.54 1.54 0 0 1 2.62-1.63Zm12.09-23.03a1.54 1.54 0 1 1 2.61-1.63 1.54 1.54 0 0 1-2.61 1.63Zm25.75 45.15a1.55 1.55 0 1 1-2.3 2.06 1.55 1.55 0 0 1 2.3-2.06Zm-5.72 4.23a1.54 1.54 0 1 1-2.16-.12 1.53 1.53 0 0 1 2.17.12" opacity=".3"/>
  <path stroke="#fff" stroke-miterlimit="10" stroke-width="3" d="M3.16 4.95h199.79M3 143.92V4.95v138.97Zm39.99 0V4.95v138.97Zm39.99 0V4.95v138.97Zm39.99 0V4.95v138.97Zm39.99 0V4.95v138.97Zm39.99 0V4.95v138.97Zm-199.79-.01h199.79H3.16Zm0-27.79h199.79H3.16Zm0-27.79h199.79H3.16Zm0-27.79h199.79H3.16Zm0-27.8h199.79H3.16Z" opacity=".1"/>
  <path fill="#fff" d="M595.02 211.67s.21 14.35-8.24 14.35H292.7c-8.37 0-8.37-14.85-8.37-14.85" opacity=".05"/>
  <path fill="#fff" d="M552.88 158.4h-225.2a4.62 4.62 0 0 1-4.62-4.62V5.62A4.62 4.62 0 0 1 327.68 1h225.2a4.62 4.62 0 0 1 4.62 4.62v148.16a4.62 4.62 0 0 1-4.62 4.62Z" opacity=".1"/>
  <path fill="#fff" d="M591.16 214.37H288.32a3.9 3.9 0 0 1-3.27-6.24l35.5-46.45a8.5 8.5 0 0 1 6.73-3.28H553.2a8.45 8.45 0 0 1 6.8 3.37l34.47 46.4a3.9 3.9 0 0 1-3.3 6.2" opacity=".1"/>
  <path fill="#fff" d="M329.96 177.36h-13.15l-2.46 3.66h13.4l2.2-3.66h.01Zm15.86 0h-13.14l-2.15 3.66h13.4l1.89-3.66Zm15.87 0h-13.15l-1.83 3.66h13.4l1.57-3.66h.01Zm15.86 0H364.4l-1.51 3.66h13.4l1.26-3.66Zm139.6 0H504l1.26 3.66h13.4l-1.51-3.66Zm15.86 0h-13.14l1.57 3.66h13.4l-1.83-3.66Zm15.86 0h-13.14l1.89 3.66h13.4l-2.15-3.66Zm15.87 0h-13.15l2.2 3.66h13.4l-2.45-3.66Zm-64.36 0h-120l-1.2 3.66h122.38l-1.18-3.66Zm-159.65-4.99h-20.56l-2.46 3.66h20.98l2.04-3.66Zm15.44 0h-12.8l-1.98 3.66h13.05l1.73-3.66Zm15.43 0h-12.79l-1.67 3.66h13.05l1.4-3.66h.01Zm15.43 0h-12.78l-1.36 3.66h13.05l1.1-3.66h-.01Zm15.55 0h-12.8l-1.03 3.66h13.05l.78-3.66Zm15.43 0h-12.79l-.72 3.66h13.05l.46-3.66Zm15.43 0h-12.78l-.41 3.66h13.04l.15-3.66Zm15.44 0h-12.79l-.1 3.66h13.05l-.17-3.66h.01Zm15.6 0h-12.79l.22 3.66h13.05l-.48-3.66Zm15.43 0h-12.79l.54 3.66h13.05l-.8-3.66Zm15.43 0h-12.78l.85 3.66h13.05l-1.12-3.66Zm15.55 0H498.1l1.17 3.66h13.05l-1.43-3.66Zm15.43 0h-12.79l1.49 3.66h13.05l-1.75-3.66Zm35.06 0h-32.41l1.8 3.66h33.07l-2.47-3.66h.01Zm-215.49-9.23h-19.5l-2.46 3.66h19.92l2.04-3.66Zm14.64 0H348.4l-2 3.66h12.4l1.73-3.66Zm14.64 0h-12.13l-1.68 3.66h12.4l1.4-3.66h.01Zm14.63 0h-12.13l-1.35 3.66h12.39l1.1-3.66h-.01Zm14.75 0h-12.13l-1.04 3.66h12.38l.78-3.66h.01Zm14.63 0h-12.12l-.73 3.66h12.39l.46-3.66Zm14.64 0h-12.13l-.4 3.66h12.38l.15-3.66Zm14.64 0h-12.13l-.1 3.66h12.4c-.07-1.22-.12-2.44-.17-3.66Zm14.8 0h-12.13l.22 3.66h12.39l-.48-3.66Zm14.64 0h-12.13l.53 3.66h12.4l-.8-3.66Zm14.63 0H480.4l.86 3.66h12.39l-1.12-3.66Zm14.74 0h-12.12l1.17 3.66h12.39l-1.43-3.66h-.01Zm14.64 0h-12.13l1.49 3.66h12.39l-1.75-3.66Zm33.25 0h-30.74l1.8 3.66h31.4l-2.46-3.66Zm-203.98 4.66h-27.93l-2.46 3.66h28.51l1.88-3.66Zm15.04 0h-12.46l-1.82 3.66h12.72l1.56-3.66Zm15.04 0H368.8l-1.5 3.66h12.71l1.25-3.66Zm15.04 0h-12.46l-1.2 3.66h12.73l.93-3.66Zm15.15 0h-12.46l-.88 3.66h12.72l.61-3.66h.01Zm15.04 0h-12.46l-.57 3.66h12.73l.3-3.66Zm15.04 0h-12.47l-.24 3.66h12.72l-.01-3.66Zm15.04 0H444.1l.08 3.66h12.72l-.33-3.66Zm15.2 0h-12.46l.38 3.66h12.73l-.65-3.66Zm15.03 0h-12.45l.7 3.66h12.72l-.97-3.66Zm15.05 0h-12.46l1.01 3.66h12.73l-1.28-3.66Zm15.14 0h-12.46l1.34 3.66h12.72l-1.6-3.66Zm15.04 0h-12.46l1.65 3.66h12.73l-1.92-3.66Zm26.27 0h-23.69l1.97 3.66h24.18l-2.46-3.66Zm-57.72 15.28H379.73a1.7 1.7 0 0 0-1.56 1.1l-8.91 24.77a1.69 1.69 0 0 0 .8 2.03c.23.13.5.2.76.2H508.5c1.1 0 1.92-1.12 1.58-2.17l-7.91-24.77a1.7 1.7 0 0 0-1.59-1.16Z" opacity=".1"/>
  <path fill="#2E006A" d="M550.18 155.78h-219.8a4.62 4.62 0 0 1-4.62-4.62V8.24a4.62 4.62 0 0 1 4.62-4.62h219.8a4.62 4.62 0 0 1 4.62 4.62v142.92a4.62 4.62 0 0 1-4.62 4.62Z"/>
  <g fill="#fff" opacity=".1">
    <path d="M425.66 26.43a4.62 4.62 0 0 0-3.15 1.12c-.48.4-1 .76-1.54 1.06a12.15 12.15 0 0 1-11.99-.19 9.07 9.07 0 0 1-1.2-.86 4.74 4.74 0 0 0-5.4-.5 4.74 4.74 0 0 0-2.34 4.14 4.75 4.75 0 0 0 2.47 4.06c1.48.8 3.32.74 4.74-.16l.6-.44a12.14 12.14 0 0 1 14.55-.03c.13.1.3.26.44.35a4.72 4.72 0 0 0 7.37-3.67 4.78 4.78 0 0 0-4.55-4.88Z"/>
    <path d="m407.85 34.65-.4.32a4 4 0 0 0 .4-.32Zm80.2 33.47a4.66 4.66 0 0 0-3.15 1.11c-.48.4-1 .76-1.54 1.06a12.15 12.15 0 0 1-11.99-.18 9.14 9.14 0 0 1-1.2-.87 4.7 4.7 0 1 0-.53 7.55l.59-.45a12.14 12.14 0 0 1 15 .32 4.7 4.7 0 0 0 7.37-3.67 4.73 4.73 0 0 0-4.56-4.87h.01Zm16.32 46.32a4.66 4.66 0 0 0 1.11 3.16c.4.48.76 1 1.06 1.54a12.14 12.14 0 0 1-.18 11.98c-.26.43-.55.83-.87 1.21a4.71 4.71 0 0 0 1.27 7.13 4.7 4.7 0 0 0 6.28-6.6l-.45-.6a12.14 12.14 0 0 1-.02-14.56 4.75 4.75 0 0 0 .68-5.2 4.73 4.73 0 0 0-4.01-2.6 4.78 4.78 0 0 0-4.87 4.55v-.01Zm-74.79-2.53c-.13-.21-.3-.4-.44-.6a12.14 12.14 0 0 1-.02-14.56 4.64 4.64 0 0 0 .68-5.2 4.74 4.74 0 0 0-1.65-1.85 4.72 4.72 0 0 0-7.17 3.26 4.71 4.71 0 0 0 .57 3.04c.48.76 1.1 1.4 1.54 2.2a12.14 12.14 0 0 1-.19 11.98c-.25.42-.54.82-.86 1.2-.18.2-.35.43-.5.66a4.78 4.78 0 0 0-.63 2.41 4.66 4.66 0 0 0 1.12 3.15c.4.48.76 1 1.06 1.54a12.14 12.14 0 0 1-.19 11.99c-.25.42-.54.82-.86 1.2a4.64 4.64 0 0 0 1.25 7.13 4.7 4.7 0 0 0 6.29-6.6c-.13-.2-.29-.4-.44-.59a12.14 12.14 0 0 1-.03-14.56l.35-.44c.55-.79.84-1.72.84-2.68 0-.95-.2-1.87-.72-2.68Zm-1.67-43.13a7.52 7.52 0 0 1-.4-12.55c.73-.52 1.44-.92 1.96-1.7a4.66 4.66 0 1 0-7.86-4.97 7.52 7.52 0 0 1-12.9-.03 4.65 4.65 0 1 0-6.41 6.37 7.53 7.53 0 0 1 .06 12.91 4.65 4.65 0 1 0 6.34 6.44 8 8 0 0 1 1.38-1.74 7.52 7.52 0 0 1 11.53 1.7 4.65 4.65 0 1 0 6.3-6.43Zm41.86 41.72-.37-.22a7.51 7.51 0 0 1-.03-12.32c.13-.1.28-.18.43-.27a4.66 4.66 0 1 0-6.33-6.41 7.53 7.53 0 0 1-11.96 1.27c-.36-.4-.67-.83-.94-1.29a4.65 4.65 0 1 0-6.42 6.37 7.53 7.53 0 0 1 .07 12.91 4.65 4.65 0 1 0 6.33 6.43 7.52 7.52 0 0 1 12.92-.03 4.64 4.64 0 1 0 6.3-6.44Z"/>
  </g>
  <path fill="#F05" d="M427.12 31.08a1.51 1.51 0 1 1-3.02.02 1.51 1.51 0 0 1 3.02-.02Zm-20.87 0a1.51 1.51 0 1 1-3.02.02 1.51 1.51 0 0 1 3.02-.02Zm20.87 20.87a1.5 1.5 0 0 1-1.8 1.49 1.5 1.5 0 0 1-.77-.42 1.51 1.51 0 1 1 2.57-1.08v.01Zm-20.87 0a1.5 1.5 0 1 1 0-.01M489.7 72.8a1.51 1.51 0 1 1-3.02.02 1.51 1.51 0 0 1 3.02-.02Zm-20.86 0a1.51 1.51 0 1 1-3.02.02 1.51 1.51 0 0 1 3.02-.02Zm-41.72 0a1.51 1.51 0 1 1-3.02.02 1.51 1.51 0 0 1 3.02-.02Zm-20.87 0a1.51 1.51 0 1 1-3.02.02 1.51 1.51 0 0 1 3.02-.02Zm62.59 20.88a1.52 1.52 0 0 1-.94 1.38 1.5 1.5 0 1 1 .94-1.38Zm-20.86 0a1.5 1.5 0 0 1-2.59 1.05 1.51 1.51 0 1 1 2.59-1.05Zm-20.86 0a1.51 1.51 0 1 1-3.02-.02 1.51 1.51 0 0 1 3.02.02Zm83.46 20.86a1.5 1.5 0 1 1-3.01 0 1.5 1.5 0 0 1 3.01 0Zm-41.74 0a1.52 1.52 0 0 1-1.8 1.47 1.52 1.52 0 0 1-1.22-1.48 1.52 1.52 0 0 1 .94-1.38 1.5 1.5 0 0 1 1.64.33c.28.28.44.66.44 1.06Zm-20.86 0a1.52 1.52 0 0 1-1.8 1.48 1.5 1.5 0 1 1 1.8-1.48Zm-20.86 0a1.5 1.5 0 1 1-3.01 0 1.5 1.5 0 0 1 3.01 0Zm83.46 20.86a1.5 1.5 0 1 1-3.01 0 1.5 1.5 0 0 1 3.01 0Zm-83.46 0a1.5 1.5 0 1 1-3.01 0 1.5 1.5 0 0 1 3.01 0Z"/>
  <path fill="#5C00D3" d="M510.58 31.08a1.51 1.51 0 1 1-3.02.02 1.51 1.51 0 0 1 3.02-.02Zm-20.88 0a1.51 1.51 0 1 1-3.02.02 1.51 1.51 0 0 1 3.02-.02Zm-20.86 0a1.51 1.51 0 1 1-3.02.02 1.51 1.51 0 0 1 3.02-.02Zm-20.86 0a1.51 1.51 0 1 1-3.02.02 1.51 1.51 0 0 1 3.02-.02Zm62.6 20.87a1.5 1.5 0 0 1-1.8 1.49 1.5 1.5 0 0 1-.77-.42 1.51 1.51 0 1 1 2.57-1.08v.01Zm-20.88 0a1.5 1.5 0 1 1 0-.01v.01Zm-20.86 0a1.5 1.5 0 1 1 0-.01v.01Zm-20.86 0a1.52 1.52 0 0 1-1.8 1.48 1.5 1.5 0 1 1 1.8-1.49m62.6 20.86a1.51 1.51 0 1 1-3.02.02 1.51 1.51 0 0 1 3.02-.02Zm-62.6 0a1.51 1.51 0 1 1-3.02.02 1.51 1.51 0 0 1 3.02-.02Zm62.6 20.88a1.5 1.5 0 0 1-2.58 1.05 1.51 1.51 0 1 1 2.58-1.05Zm-20.88 0a1.52 1.52 0 0 1-.94 1.38 1.5 1.5 0 1 1 .94-1.38Zm-83.45 0a1.51 1.51 0 1 1-3.02-.02 1.51 1.51 0 0 1 3.02.02Zm83.45 20.86a1.52 1.52 0 0 1-1.8 1.47 1.52 1.52 0 0 1-1.22-1.48 1.52 1.52 0 0 1 .94-1.38 1.5 1.5 0 0 1 1.64.33c.28.28.44.66.44 1.06Zm-83.45 0a1.51 1.51 0 1 1-3.02 0 1.51 1.51 0 0 1 3.02 0Zm83.45 20.86a1.52 1.52 0 0 1-1.8 1.47 1.5 1.5 0 1 1 1.8-1.47Zm-20.86 0a1.52 1.52 0 0 1-1.8 1.47 1.5 1.5 0 1 1 1.8-1.47Zm-20.86 0a1.52 1.52 0 0 1-1.8 1.48 1.5 1.5 0 1 1 1.8-1.48Zm-41.73 0a1.51 1.51 0 1 1-3.02 0 1.51 1.51 0 0 1 3.02 0Z"/>
  <path fill="#fff" d="M337.77 28.13h42.66v2.27h-42.66v-2.27Zm4.5 14.63h32.48v2.27h-32.48v-2.27Zm0 7.28h13.9v2.27h-13.9v-2.27Zm0 7.28h38.16v2.27h-38.16v-2.27Zm-4.5 11.66h42.66v2.27h-42.66v-2.27Zm0 41.82h16.33v2.27h-16.33v-2.27Zm0 4.98h10.33v2.27h-10.33v-2.27Zm0 14.95h11.74V133h-11.74v-2.27Zm14.22 0h11.74V133h-11.74v-2.27Z" opacity=".2"/>
  <path fill="#fff" d="M351 129.62v-.25h-.25v.25h.25Zm29.43 0h.25v-.25h-.25v.25Zm0 4.5v.25h.25v-.25h-.25Zm-29.44 0h-.25v.25h.25v-.25ZM337.77 42.9v-.25h-.25v.25h.25Zm2.23 0h.25v-.25H340v.25Zm0 2.23v.25h.25v-.25H340Zm-2.23 0h-.25v.25h.25v-.25Zm0 12.21v-.25h-.25v.25h.25Zm2.23 0h.25v-.25H340v.25Zm0 2.23v.25h.25v-.25H340Zm-2.23 0h-.25v.25h.25v-.25Zm40.18 73.09-.2.15.2.27.2-.27-.2-.15Zm-10.91-98.1h13.39v-.5h-13.39v.5ZM351 129.87h29.43v-.5H351v.5Zm29.18-.25v4.5h.5v-4.5h-.5Zm.25 4.25h-29.44v.5h29.44v-.5Zm-29.19.25.01-4.5h-.5l-.01 4.5h.5Zm-5.44-58.71h34.63v-.5H345.8v.5Zm13.18 24.65h21.46v-.5h-21.46v.5Zm-21.21-56.91H340v-.5h-2.23v.5Zm1.98-.25v2.23h.5V42.9h-.5Zm.25 1.98h-2.23v.5H340v-.5Zm-1.98.25V42.9h-.5v2.23h.5Zm-.25 12.46H340v-.5h-2.23v.5Zm1.98-.25v2.23h.5v-2.23h-.5Zm.25 1.98h-2.23v.5H340v-.5Zm-1.98.25v-2.23h-.5v2.23h.5Zm38.57 71.66 1.16 1.58.4-.3-1.16-1.58-.4.3Zm1.56 1.58 1.16-1.58-.4-.3-1.16 1.58.4.3Z"/>
  <path fill="#fff" d="M337.77 120.77h30.63v2.27h-30.63v-2.27Zm0-39.16h12.97v2.27h-12.97v-2.27Z" opacity=".2"/>
  <path stroke="#fff" stroke-miterlimit="10" stroke-width=".5" d="M379.07 87.8h1.36"/>
  <path fill="#fff" d="M337.77 93.63h31.5v2.27h-31.5v-2.27Z" opacity=".2"/>
  <path fill="#FF0045" d="M368.4 34.31a1.24 1.24 0 1 1-2.48 0 1.24 1.24 0 0 1 2.48 0Zm-21.23 40.85a1.24 1.24 0 1 1-2.48 0 1.24 1.24 0 0 1 2.48 0Zm33.26 12.64a1.25 1.25 0 0 1-.77 1.14 1.24 1.24 0 1 1 .77-1.15m-20.09 12.02a1.24 1.24 0 1 1-2.38-.47 1.25 1.25 0 0 1 1.08-.77 1.24 1.24 0 0 1 1.3 1.24Z"/>
  <path fill="#FF0045" d="M337.77 34.81h29.27v-1h-29.27v1Zm0 40.85h8.04v-1h-8.04v1Zm0 12.64h41.3v-1h-41.3v1Zm0 12.01h21.2v-1h-21.2v1Zm0-50.21H340v2.23h-2.23V50.1Z"/>
  <path stroke="#270635" stroke-miterlimit="10" stroke-width=".5" d="m338.15 51.21.73.67.75-1.41"/>
  <path fill="#8B00AF" d="M534.67 28.13h9.45v9.45h-9.45v-9.45Zm-12.69 12.28h9.45v9.45h-9.45v-9.45Z"/>
  <path fill="#F05" d="M534.67 40.41h9.45v9.45h-9.45v-9.45Zm0 12.29h9.45v9.45h-9.45V52.7Zm-12.69 12.29h9.45v9.45h-9.45v-9.45Z"/>
  <path fill="#FBB03B" d="M521.98 28.13h9.45v9.45h-9.45v-9.45Zm0 24.57h9.45v9.45h-9.45V52.7Zm12.69 12.29h9.45v9.45h-9.45v-9.45Zm-12.69 12.28h9.45v9.45h-9.45v-9.45Zm12.69 0h9.45v9.45h-9.45v-9.45Z"/>
  <path fill="#5C00D3" d="M655.68 54.95 632.56 68.3v-4.35h-33.64v-18h33.64V41.6l23.12 13.35ZM298.74 74.43l-23.12 13.35v-4.35h-33.64v-18h33.64v-4.35l23.12 13.35Zm323.3 2.55-23.12 13.35 23.12 13.35v-4.35h33.64v-18h-33.64v-4.35Zm-202.3 164.08 13.35 23.11h-4.35v33.64h-18v-33.64h-4.35l13.35-23.11Zm26.38 33.64v-33.64h18v33.64h4.35l-13.35 23.12-13.35-23.12h4.35Z"/>
  <path fill="#fff" d="M407.57 335.6h-31.06c-.84 0-1.55-.7-1.55-1.55 0-.84.7-1.55 1.55-1.55h31.06c.84 0 1.55.7 1.55 1.55 0 .84-.7 1.55-1.55 1.55Zm-13.9 6.54h-17.16c-.84 0-1.55-.7-1.55-1.55 0-.84.7-1.55 1.55-1.55h17.16c.84 0 1.55.7 1.55 1.55 0 .84-.7 1.55-1.55 1.55Zm22.36 6.56h-28.08c-.85 0-1.56-.7-1.56-1.56 0-.84.71-1.55 1.56-1.55h28.08c.84 0 1.55.7 1.55 1.55 0 .84-.7 1.55-1.55 1.55m-12.68 6.56h-15.4c-.85 0-1.56-.7-1.56-1.56 0-.84.71-1.55 1.56-1.55h15.4c.84 0 1.55.7 1.55 1.55 0 .84-.7 1.55-1.55 1.55m4.22 6.56h-31.06a1.56 1.56 0 0 1 0-3.11h31.06a1.55 1.55 0 1 1 0 3.1m-2.62 6.55h-28.44a1.55 1.55 0 1 1 0-3.1h28.44a1.55 1.55 0 1 1 0 3.1Zm-7.88 6.56h-9.12a1.56 1.56 0 0 1 0-3.11h9.12a1.55 1.55 0 1 1 0 3.1m6.28 6.55h-15.4a1.55 1.55 0 1 1 0-3.1h15.4a1.55 1.55 0 1 1 0 3.1ZM415.6 388h-27.65a1.56 1.56 0 0 1 0-3.11h27.66a1.54 1.54 0 0 1 1.44.96 1.55 1.55 0 0 1-1.44 2.14m-23.87 19.65h-15.4a1.55 1.55 0 1 1 0-3.1h15.4a1.55 1.55 0 1 1 0 3.1ZM404 414.2h-27.65a1.56 1.56 0 0 1 0-3.11H404a1.55 1.55 0 1 1 0 3.1" opacity=".48"/>
  <path fill="#fff" d="M443.36 335.6h-31.05c-.84 0-1.55-.7-1.55-1.55 0-.84.7-1.55 1.55-1.55h31.05c.84 0 1.55.7 1.55 1.55 0 .84-.7 1.55-1.55 1.55Zm22.4 0c-.84 0-1.55-.7-1.55-1.55 0-.84.7-1.55 1.55-1.55h31.06c.84 0 1.55.7 1.55 1.55 0 .84-.7 1.55-1.55 1.55h-31.06Zm-4.9 0H448.6c-.84 0-1.55-.7-1.55-1.55 0-.84.7-1.55 1.55-1.55h12.25c.84 0 1.55.7 1.55 1.55 0 .84-.7 1.55-1.55 1.55m43.81 6.54h-30.24c-.84 0-1.55-.7-1.55-1.55 0-.84.7-1.55 1.55-1.55h30.24c.84 0 1.55.7 1.55 1.55 0 .84-.7 1.55-1.55 1.55Zm-34.49 0H433.9c-.84 0-1.55-.7-1.55-1.55 0-.84.7-1.55 1.55-1.55h36.28c.84 0 1.55.7 1.55 1.55 0 .84-.7 1.55-1.55 1.55m27.32 6.56h-28.08c-.85 0-1.56-.7-1.56-1.56 0-.84.71-1.55 1.56-1.55h28.08c.84 0 1.55.7 1.55 1.55 0 .84-.7 1.55-1.55 1.55v.01Zm-32.83 0h-10.92c-.85 0-1.56-.7-1.56-1.56 0-.84.71-1.55 1.56-1.55h10.92c.84 0 1.55.7 1.55 1.55 0 .84-.7 1.55-1.55 1.55m39.99 6.56h-27.33c-.85 0-1.56-.7-1.56-1.56 0-.84.71-1.55 1.56-1.55h27.33c.84 0 1.55.7 1.55 1.55 0 .84-.7 1.55-1.55 1.55v.01Zm-61.3 6.55h-31.05a1.56 1.56 0 0 1 0-3.11h31.05a1.55 1.55 0 1 1 0 3.1v.01Zm53.45 0h-31.05a1.56 1.56 0 0 1 0-3.11h31.06a1.55 1.55 0 1 1 0 3.1l-.01.01Zm-35.95 0H448.6a1.56 1.56 0 0 1 0-3.11h12.25a1.55 1.55 0 1 1 0 3.1m-50.99 6.55a1.54 1.54 0 0 1-1.44-.96 1.55 1.55 0 0 1 1.44-2.14h33.02a1.55 1.55 0 1 1 0 3.1h-33.02Zm60.31 0h-23.04a1.55 1.55 0 1 1 0-3.1h23.04a1.54 1.54 0 0 1 1.44.96 1.55 1.55 0 0 1-1.44 2.14Zm27.33 6.56h-28.08a1.56 1.56 0 0 1 0-3.11h28.08a1.55 1.55 0 1 1 0 3.1v.01Zm7.16 6.54h-27.33a1.55 1.55 0 1 1 0-3.1h27.33a1.55 1.55 0 1 1 0 3.1ZM430.3 388h-9.94a1.56 1.56 0 0 1 0-3.11h9.94a1.54 1.54 0 0 1 1.44.96 1.55 1.55 0 0 1-1.44 2.14v.01Zm26.2 0h-22.06a1.56 1.56 0 0 1 0-3.11h22.07a1.54 1.54 0 0 1 1.44.96 1.55 1.55 0 0 1-1.44 2.14l-.01.01Zm-71.03 13.1h-9.12a1.55 1.55 0 0 1-1.44-.96 1.55 1.55 0 0 1 1.44-2.15h9.12a1.55 1.55 0 1 1 0 3.1v.01Zm19.43 0h-14.84a1.55 1.55 0 0 1-1.44-.96 1.55 1.55 0 0 1 1.44-2.15h14.84a1.55 1.55 0 1 1 0 3.1v.01Zm81 0h-28.08a1.55 1.55 0 0 1-1.44-.96 1.55 1.55 0 0 1 1.44-2.15h28.08a1.55 1.55 0 1 1 0 3.1v.01Zm-32.83 0h-43.12a1.55 1.55 0 0 1-1.44-.96 1.55 1.55 0 0 1 1.44-2.15h43.12a1.55 1.55 0 1 1 0 3.1m39.98 6.55h-27.33a1.55 1.55 0 1 1 0-3.1h27.33a1.55 1.55 0 1 1 0 3.1Zm-74.36 6.56h-9.94a1.56 1.56 0 0 1 0-3.11h9.94a1.55 1.55 0 1 1 0 3.1v.01Zm26.21 0h-22.06a1.56 1.56 0 0 1 0-3.11h22.06a1.55 1.55 0 1 1 0 3.1v.01ZM369 335.6a1.55 1.55 0 1 1 .59-.12c-.2.08-.4.12-.6.12h.01Zm0 6.54a1.55 1.55 0 1 1 .59-.12c-.2.08-.4.12-.6.12h.01Zm0 6.56a1.55 1.55 0 1 1 .6-.12c-.2.07-.4.11-.61.11l.01.01Zm0 6.55a1.57 1.57 0 0 1-1.5-1.17 1.55 1.55 0 1 1 3.04-.56 1.55 1.55 0 0 1-1.55 1.73h.01Zm0 6.55a1.55 1.55 0 1 1 .6-.12c-.2.07-.4.11-.61.11l.01.01Zm0 6.54a1.55 1.55 0 1 1 .59-.1c-.19.07-.4.11-.6.11l.01-.01Zm0 6.56a1.55 1.55 0 1 1 .6-.12c-.2.08-.4.11-.61.11l.01.01Zm0 6.54a1.55 1.55 0 1 1 .59-.12c-.2.08-.4.12-.6.12h.01Zm0 6.56a1.57 1.57 0 0 1-1.5-1.17 1.58 1.58 0 0 1 .32-1.4 1.54 1.54 0 0 1 1.45-.52 1.55 1.55 0 0 1 .31 2.97c-.18.07-.39.11-.59.11l.01.01Zm0 6.54a1.55 1.55 0 1 1 .59-.12c-.2.08-.4.12-.6.12h.01Zm0 6.56a1.55 1.55 0 1 1 .6-.12c-.2.07-.4.11-.61.11l.01.01Zm0 6.54a1.57 1.57 0 0 1-1.5-1.17 1.55 1.55 0 1 1 3.04-.56 1.55 1.55 0 0 1-1.55 1.73h.01Zm0 6.56a1.55 1.55 0 1 1 .6-.12c-.2.07-.4.11-.61.11l.01.01Z" opacity=".1"/>
  <path fill="#fff" d="M448.7 348.7h-28.07a1.56 1.56 0 0 1 0-3.11h28.07a1.54 1.54 0 0 1 1.44.96 1.55 1.55 0 0 1-1.44 2.14v.01Zm-12.52 6.55H408.1a1.56 1.56 0 0 1 0-3.11h28.08a1.55 1.55 0 1 1 0 3.1v.01ZM416.5 374.9h-14.83a1.56 1.56 0 0 1 0-3.11h14.84a1.55 1.55 0 1 1 0 3.1l-.01.01Zm19.68 6.54H408.1a1.55 1.55 0 1 1 0-3.1h28.08a1.55 1.55 0 1 1 0 3.1Zm-11.61 26.2h-28.08a1.55 1.55 0 1 1 0-3.1h28.08a1.55 1.55 0 1 1 0 3.1Z" opacity=".35"/>
  <path fill="#fff" d="M440.33 355.25h32.85c.85 0 1.55-.71 1.55-1.55 0-.85-.71-1.55-1.55-1.55h-32.85c-.85 0-1.55.72-1.55 1.55 0 .84.71 1.55 1.55 1.55Zm-18.78 19.65h43.13v-.01a1.55 1.55 0 1 0 0-3.1h-43.13a1.54 1.54 0 0 0-1.43 2.15 1.56 1.56 0 0 0 1.43.96Zm18.78 6.54h32.85a1.55 1.55 0 1 0 0-3.1h-32.85a1.55 1.55 0 1 0 0 3.1Zm-11.61 26.2h32.85a1.55 1.55 0 1 0 0-3.1h-32.85a1.55 1.55 0 1 0 0 3.1Zm-30.14-65.5h31.05a1.55 1.55 0 1 0 0-3.1h-31.05a1.55 1.55 0 1 0 0 3.1Z" opacity=".2"/>
  <path fill="#fff" d="M703.98 1H893.9v154.78H703.98V1Z" opacity=".05"/>
  <path fill="#fff" fill-rule="evenodd" d="M784.11 31.64a5.26 5.26 0 0 0-1.84 10.19l-.01 7.96h-8.16a3.79 3.79 0 0 0-3.75 3.75v8.17h-7.96a5.26 5.26 0 1 0 0 3.67h7.96v11.17h-7.96a5.26 5.26 0 1 0 0 3.67h7.96v11.17h-7.96a5.26 5.26 0 1 0 0 3.67h7.96v8.18c0 2.04 1.7 3.75 3.75 3.75h8.17v7.95a5.27 5.27 0 0 0 2.4 10.16 5.26 5.26 0 0 0 1.26-10.16v-7.95h11.18v7.95a5.27 5.27 0 0 0 .1 9.9 5.27 5.27 0 0 0 3.57-9.9V107h11.17v7.95a5.28 5.28 0 0 0-.6 9.6 5.27 5.27 0 1 0 4.27-9.6V107h8.17c2.04 0 3.75-1.7 3.75-3.75v-8.19l7.95.01a5.26 5.26 0 1 0 0-3.67h-7.95V80.21l7.95.01a5.26 5.26 0 1 0 0-3.67h-7.95V65.37l7.95.01a5.26 5.26 0 1 0 0-3.67h-7.95v-8.17c0-2.04-1.7-3.74-3.74-3.75h-8.18v-7.96l.17-.07a5.26 5.26 0 1 0-3.84.07v7.96h-11.17v-7.96l.17-.07a5.26 5.26 0 1 0-3.84.07v7.96h-11.18v-7.95l.18-.08a5.26 5.26 0 0 0-2-10.12Zm0 4c.69 0 1.26.58 1.26 1.26 0 .79-.74 1.39-1.5 1.24-.77-.16-1.22-1-.92-1.72.19-.46.66-.78 1.16-.78Zm-27.91 27.9a1.26 1.26 0 1 1 2.52 0 1.26 1.26 0 0 1-2.52 0Zm82.96 0a1.26 1.26 0 1 1 2.52 0 1.26 1.26 0 0 1-2.52 0Zm1.26 28.43a1.26 1.26 0 1 0 0 2.52 1.26 1.26 0 0 0 0-2.52Zm-27.89 27.9c0 .69.57 1.26 1.26 1.26.78 0 1.39-.74 1.24-1.5-.1-.5-.5-.9-1-1-.76-.15-1.5.46-1.5 1.24Zm-28.19-1.24c-.76-.15-1.5.47-1.5 1.24 0 .69.58 1.26 1.26 1.26.79 0 1.39-.74 1.24-1.5-.1-.5-.5-.9-1-1Zm14.84 0c-.75-.15-1.5.46-1.5 1.24a1.27 1.27 0 0 0 2.12.94 1.26 1.26 0 0 0-.62-2.18Zm39.98-40.24a1.26 1.26 0 1 1 2.52 0 1.26 1.26 0 0 1-2.52 0Zm-82.96 0a1.26 1.26 0 1 1 2.52 0 1.26 1.26 0 0 1-2.52 0Zm57.59-42.75c-.78 0-1.39.75-1.24 1.5.1.5.5.9 1 1 .75.15 1.5-.45 1.5-1.24 0-.67-.57-1.26-1.26-1.26ZM756.2 93.23a1.26 1.26 0 1 1 2.52 0 1.26 1.26 0 0 1-2.52 0Zm42.75-57.59c.5 0 .97.31 1.16.78.38.91-.44 1.91-1.4 1.72-.78-.16-1.22-1-.92-1.72.19-.46.66-.78 1.16-.78Z" clip-rule="evenodd" opacity=".1"/>
  <path stroke="#fff" stroke-miterlimit="10" d="M799.5 58.15c5.6 0 10.14 9.32 10.14 20.8s-4.54 20.82-10.13 20.82c-5.59 0-10.13-9.32-10.13-20.81 0-11.49 4.53-20.81 10.13-20.81h-.01Z" opacity=".26"/>
  <path stroke="#fff" stroke-miterlimit="10" d="M781.49 68.55c2.8-4.84 13.13-4.11 23.08 1.63 9.95 5.74 15.75 14.33 12.96 19.18-2.79 4.85-13.14 4.12-23.09-1.63s-15.75-14.34-12.95-19.18Z" opacity=".26"/>
  <path stroke="#fff" stroke-miterlimit="10" d="M817.53 68.55c2.8 4.85-3 13.43-12.96 19.18s-20.28 6.48-23.08 1.63c-2.8-4.85 3-13.43 12.95-19.18s20.29-6.47 23.09-1.63Z" opacity=".26"/>
  <path fill="#fff" d="M799.5 73.9a5.07 5.07 0 1 1-1.93.37 5.07 5.07 0 0 1 1.94-.38l-.01.01Zm-18.15 6.36a3.15 3.15 0 1 1 0 6.3 3.15 3.15 0 0 1 0-6.3Zm22.62-23.24a3.15 3.15 0 1 1 0 6.3 3.15 3.15 0 0 1 0-6.3Zm9.81 32.18a3.15 3.15 0 1 1 0 6.3 3.15 3.15 0 0 1 0-6.3Z" opacity=".26"/>
</svg>
