<svg width="31" height="29" viewBox="0 0 31 29" fill="none" xmlns="http://www.w3.org/2000/svg">
<path d="M15.4421 1.05826C12.3064 1.01269 9.25902 2.09705 6.85693 4.11315C4.45484 6.12924 2.85848 8.94243 2.35962 12.0385C1.86075 15.1346 2.4927 18.3068 4.13996 20.9754C5.78722 23.6439 8.33978 25.6306 11.3311 26.5723C11.9311 26.6933 12.4191 26.0283 12.4191 25.4843V23.7293C8.79109 24.5153 7.64309 21.9763 7.64309 21.9763C7.4073 21.2108 6.94325 20.5357 6.31309 20.0413C5.10409 19.1953 6.37309 19.2553 6.37309 19.2553C6.77768 19.2867 7.16929 19.4125 7.51658 19.6224C7.86388 19.8323 8.1572 20.1206 8.37309 20.4643C9.40109 22.2173 11.6981 22.0363 12.4241 21.7343C12.36 21.1334 12.4638 20.5266 12.7241 19.9813C8.60709 19.2583 6.37409 16.8373 6.37409 13.5723C6.33071 11.8695 6.96062 10.2184 8.12709 8.97726C7.80194 8.37711 7.64686 7.69955 7.67859 7.01771C7.71031 6.33587 7.92763 5.67564 8.30709 5.10826C9.03731 5.12199 9.7571 5.28423 10.4226 5.58509C11.0881 5.88595 11.6854 6.31914 12.1781 6.85826C13.228 6.49989 14.3344 6.33587 15.4431 6.37426C16.547 6.33997 17.6493 6.48278 18.7081 6.79726C19.2079 6.27218 19.8077 5.85228 20.4721 5.56223C21.1365 5.27219 21.8522 5.11784 22.5771 5.10826C22.9484 5.67723 23.1659 6.33275 23.2083 7.01085C23.2507 7.68895 23.1166 8.36646 22.8191 8.97726C23.9619 10.2287 24.568 11.8786 24.5071 13.5723C24.5071 16.8373 22.2701 19.2553 18.1591 19.9813C18.4194 20.5266 18.5232 21.1334 18.4591 21.7343V25.4823C18.4589 25.6304 18.4889 25.7771 18.5473 25.9132C18.6058 26.0494 18.6914 26.1721 18.799 26.274C18.9066 26.3759 19.0339 26.4547 19.173 26.5056C19.3121 26.5566 19.4602 26.5786 19.6081 26.5703C22.5257 25.5562 24.9919 23.5452 26.5726 20.8915C28.1533 18.2378 28.747 15.1115 28.2492 12.0631C27.7514 9.01464 26.194 6.23959 23.8513 4.22655C21.5086 2.2135 18.5307 1.09156 15.4421 1.05826V1.05826Z" fill="#5C00D3"/>
</svg>
