<svg width="30" height="30" viewBox="0 0 30 30" fill="none" xmlns="http://www.w3.org/2000/svg">
<path d="M28.309 6.66706C27.3117 7.12355 26.2521 7.42923 25.165 7.57406C26.2999 6.88041 27.1556 5.81064 27.583 4.55106C26.498 5.14435 25.3393 5.59156 24.137 5.88106C23.3857 5.088 22.4153 4.53664 21.3494 4.29725C20.2835 4.05787 19.1705 4.14131 18.1523 4.53694C17.134 4.93257 16.2567 5.62247 15.632 6.51868C15.0074 7.41488 14.6638 8.4768 14.645 9.56906C14.6457 9.99877 14.7066 10.4263 14.826 10.8391C12.6598 10.7255 10.5412 10.1614 8.60532 9.18292C6.66945 8.2044 4.95893 6.83291 3.58298 5.15606C3.07129 5.97153 2.79894 6.91434 2.79698 7.87706C2.79655 8.78011 3.02339 9.66875 3.45662 10.4611C3.88984 11.2535 4.51551 11.924 5.27598 12.4111C4.40524 12.4136 3.54955 12.184 2.79698 11.7461V11.7461C2.77371 13.0117 3.1974 14.2451 3.99356 15.2293C4.78972 16.2135 5.90737 16.8854 7.14998 17.1271C6.68023 17.2761 6.19167 17.3576 5.69898 17.3691L4.67098 17.2481C5.03138 18.3345 5.7182 19.2833 6.63772 19.965C7.55725 20.6466 8.6647 21.028 9.80898 21.0571C7.87113 22.5564 5.48815 23.3659 3.03798 23.3571H1.70898C4.18828 24.9803 7.08859 25.8421 10.052 25.8361C12.0959 25.8476 14.1219 25.4535 16.0124 24.6765C17.903 23.8996 19.6206 22.7552 21.0658 21.3098C22.511 19.8643 23.655 18.1465 24.4316 16.2557C25.2082 14.365 25.6019 12.339 25.59 10.2951V9.50906C26.6588 8.73172 27.5797 7.76918 28.309 6.66706V6.66706Z" fill="#5C00D3"/>
</svg>
