<svg width="32" height="30" viewBox="0 0 32 30" fill="none" xmlns="http://www.w3.org/2000/svg">
<path d="M25.962 2.93905H5.40598C5.17069 2.93086 4.93616 2.97014 4.71639 3.05457C4.49661 3.13899 4.2961 3.26681 4.1268 3.43042C3.9575 3.59402 3.82289 3.79005 3.73101 4.00681C3.63912 4.22357 3.59184 4.45662 3.59198 4.69205V25.3081C3.59184 25.5435 3.63912 25.7765 3.73101 25.9933C3.82289 26.21 3.9575 26.4061 4.1268 26.5697C4.2961 26.7333 4.49661 26.8611 4.71639 26.9455C4.93616 27.03 5.17069 27.0692 5.40598 27.0611H25.962C26.1922 27.0611 26.4201 27.0157 26.6328 26.9276C26.8455 26.8395 27.0388 26.7104 27.2015 26.5476C27.3643 26.3848 27.4934 26.1916 27.5815 25.9789C27.6696 25.7662 27.715 25.5383 27.715 25.3081V4.69205C27.715 4.46184 27.6696 4.23389 27.5815 4.02121C27.4934 3.80852 27.3643 3.61527 27.2015 3.45249C27.0388 3.28971 26.8455 3.16059 26.6328 3.07249C26.4201 2.98439 26.1922 2.93905 25.962 2.93905ZM10.787 23.4941H7.15898V12.0071H10.787V23.4941ZM8.97298 10.4391C8.42155 10.4234 7.89804 10.193 7.51398 9.79704C7.12993 9.40103 6.91572 8.8707 6.91698 8.31905C6.91094 8.0453 6.95964 7.77311 7.06023 7.51844C7.16082 7.26377 7.31126 7.03176 7.50273 6.83602C7.69419 6.64028 7.92283 6.48476 8.17522 6.37858C8.42761 6.2724 8.69867 6.21771 8.97248 6.21771C9.24629 6.21771 9.51735 6.2724 9.76974 6.37858C10.0221 6.48476 10.2508 6.64028 10.4422 6.83602C10.6337 7.03176 10.7841 7.26377 10.8847 7.51844C10.9853 7.77311 11.034 8.0453 11.028 8.31905C11.0293 8.87053 10.8152 9.40072 10.4313 9.79669C10.0475 10.1927 9.52423 10.4232 8.97298 10.4391V10.4391ZM24.148 23.4941H20.581V17.8721C20.581 16.5421 20.581 14.8491 18.707 14.8491C16.833 14.8491 16.592 16.3001 16.592 17.8111V23.4941H13.024V12.0071H16.41V13.5791H16.47C16.8105 12.9882 17.3057 12.5014 17.9024 12.1712C18.4991 11.841 19.1745 11.6798 19.856 11.7051C23.484 11.7051 24.149 14.063 24.149 17.205L24.148 23.4941Z" fill="#5C00D3"/>
</svg>
